<?xml version="1.0" encoding="UTF-8"?>
<svg version="1.1" xmlns="http://www.w3.org/2000/svg" width="512" height="512">
<path d="M0 0 C2.76635742 1.14819336 2.76635742 1.14819336 5.60546875 2.58984375 C6.67345703 3.12802734 7.74144531 3.66621094 8.84179688 4.22070312 C9.94587891 4.78724609 11.04996094 5.35378906 12.1875 5.9375 C13.24130859 6.46923828 14.29511719 7.00097656 15.38085938 7.54882812 C21.95204557 10.87932238 28.47422824 14.29788778 34.98828125 17.73828125 C44.65271745 22.84120938 54.37824387 27.82048991 64.11639404 32.78097534 C69.09214943 35.31582492 74.06575287 37.8548872 79.0390625 40.39453125 C80.49452988 41.1377639 80.49452988 41.1377639 81.97940063 41.89601135 C89.12629052 45.54799946 96.25692413 49.22962269 103.375 52.9375 C129.66072225 66.61613057 156.05630847 80.09516867 182.58859253 93.28930664 C190.27796123 97.11412973 197.91206078 101.0190905 205.48681641 105.06567383 C215.05924394 110.14713762 224.79195733 114.91959993 234.50146484 119.73217773 C235.18718567 120.07292328 235.87290649 120.41366882 236.57940674 120.76473999 C237.88302017 121.41243032 239.18747453 122.0584315 240.49285889 122.70254517 C244.88750896 124.88750896 244.88750896 124.88750896 246 126 C246.09646433 127.38135329 246.12371904 128.7676122 246.12304783 130.15232944 C246.12503888 131.05303655 246.12702993 131.95374366 246.12908131 132.88174492 C246.12616847 133.88269674 246.12325563 134.88364856 246.12025452 135.91493225 C246.12153615 137.49654865 246.12153615 137.49654865 246.12284368 139.1101169 C246.12450163 142.67246782 246.11897199 146.2347725 246.11352539 149.79711914 C246.11324356 152.33910623 246.11340117 154.8810934 246.1139679 157.42308044 C246.11419622 162.91081909 246.11134471 168.39854262 246.10573006 173.88627815 C246.09761738 181.82070802 246.09500008 189.75513214 246.09374207 197.68956571 C246.09155118 210.56135761 246.0848901 223.43314318 246.07543945 236.30493164 C246.06626628 248.81176726 246.05918499 261.31860116 246.05493164 273.82543945 C246.05453756 274.98101266 246.05453756 274.98101266 246.05413551 276.15993077 C246.05283051 280.02455051 246.05156679 283.88917026 246.05032361 287.75379002 C246.03994985 319.83586461 246.02233054 351.91793143 246 384 C242.95480298 385.60444538 239.90932591 387.20835848 236.86380005 388.81217957 C236.00636106 389.26395301 235.14892206 389.71572646 234.26550007 390.18119001 C228.29842892 393.32309435 222.31599738 396.43175678 216.3046875 399.48828125 C215.40046051 399.94941818 214.49623352 400.41055511 213.56460571 400.88566589 C211.65279674 401.86050464 209.7407162 402.83481098 207.82836914 403.80859375 C202.66295364 406.43891197 197.49963949 409.07335124 192.3359375 411.70703125 C191.29157532 412.23954498 190.24721313 412.77205872 189.17120361 413.32070923 C179.27430126 418.36780319 169.38631494 423.43220772 159.5 428.5 C144.84021748 436.01351062 130.1722884 443.51094169 115.5 451 C100.78625334 458.51029447 86.07679358 466.02883249 71.375 473.5625 C57.40399722 480.7213848 43.43035029 487.87507139 29.45269775 495.02096558 C27.46398527 496.03770445 25.47533638 497.05456773 23.48675537 498.07156372 C20.71922157 499.48687685 17.95144339 500.90171091 15.18359375 502.31640625 C14.37084488 502.73212891 13.55809601 503.14785156 12.72071838 503.57617188 C11.20189175 504.35219451 9.68073818 505.12368498 8.1569519 505.8899231 C6.70999689 506.63459957 5.27853426 507.4101179 3.86380005 508.21432495 C0.66220696 509.98509349 -1.32818526 511.00739088 -5.0402832 510.96655273 C-8.64873231 509.78814392 -11.98730929 508.26432518 -15.35546875 506.53515625 C-16.05014755 506.18635406 -16.74482635 505.83755188 -17.46055603 505.47817993 C-19.70695448 504.3475081 -21.94725161 503.20530179 -24.1875 502.0625 C-25.74110372 501.2772163 -27.29497876 500.49246916 -28.84912109 499.70825195 C-37.36983278 495.39969292 -45.856633 491.02991957 -54.28198242 486.53735352 C-61.4855751 482.70589744 -68.79359383 479.08995247 -76.10009766 475.4597168 C-83.04654475 471.99981125 -89.92570475 468.43230108 -96.77734375 464.7890625 C-103.13442421 461.42291871 -109.55821423 458.20058781 -116 455 C-123.17123051 451.43696063 -130.3056877 447.82381521 -137.375 444.0625 C-144.85576339 440.08309564 -152.41258418 436.27179796 -160 432.5 C-168.35079868 428.34871501 -176.64620885 424.11858992 -184.87890625 419.73828125 C-191.20151059 416.38784134 -197.59219362 413.18397497 -204 410 C-214.4203216 404.81909356 -224.71986787 399.45476399 -235 394 C-244.405 389.05 -244.405 389.05 -254 384 C-254 298.86 -254 213.72 -254 126 C-243.02506285 120.22371729 -232.08556581 114.47980933 -220.97802734 108.9798584 C-210.85939485 103.96737611 -200.78161692 98.89833961 -190.81640625 93.5859375 C-184.5973674 90.28241954 -178.30623002 87.13336174 -172 84 C-164.99540671 80.51961667 -158.02606678 76.99390091 -151.125 73.3125 C-140.78718291 67.80389409 -130.28868945 62.61555296 -119.79345703 57.4152832 C-111.63272374 53.36412359 -103.54084302 49.20213739 -95.48825073 44.94010925 C-86.41735741 40.14704635 -77.2745919 35.4964117 -68.13156128 30.84286499 C-62.98594766 28.22370436 -57.84244142 25.60041447 -52.69921875 22.9765625 C-51.69027054 22.46185898 -50.68132233 21.94715546 -49.64179993 21.41685486 C-37.93418167 15.44057135 -26.25920989 9.40182466 -14.59741211 3.33666992 C-13.74026611 2.89556885 -12.88312012 2.45446777 -12 2 C-11.02490479 1.42805908 -10.04980957 0.85611816 -9.04516602 0.2668457 C-5.39252276 -1.25272183 -3.76825382 -1.07571634 0 0 Z " fill="#926E43" transform="translate(260,1)"/>
<path d="M0 0 C2.76635742 1.14819336 2.76635742 1.14819336 5.60546875 2.58984375 C6.67345703 3.12802734 7.74144531 3.66621094 8.84179688 4.22070312 C9.94587891 4.78724609 11.04996094 5.35378906 12.1875 5.9375 C13.24130859 6.46923828 14.29511719 7.00097656 15.38085938 7.54882812 C21.95204557 10.87932238 28.47422824 14.29788778 34.98828125 17.73828125 C44.65271745 22.84120938 54.37824387 27.82048991 64.11639404 32.78097534 C69.09214943 35.31582492 74.06575287 37.8548872 79.0390625 40.39453125 C80.49452988 41.1377639 80.49452988 41.1377639 81.97940063 41.89601135 C89.12629052 45.54799946 96.25692413 49.22962269 103.375 52.9375 C129.66072225 66.61613057 156.05630847 80.09516867 182.58859253 93.28930664 C190.27817627 97.1142367 197.91504169 101.01500208 205.48681641 105.06787109 C210.69225845 107.83516161 215.95173075 110.48185485 221.234375 113.09765625 C221.96326935 113.45915268 222.6921637 113.82064911 223.44314575 114.19309998 C227.12533258 116.01827288 230.81083844 117.83624139 234.50146484 119.64428711 C235.85785525 120.31472326 237.21414253 120.98536807 238.5703125 121.65625 C239.20475281 121.96413956 239.83919312 122.27202911 240.49285889 122.58924866 C244.88659226 124.77318452 244.88659226 124.77318452 246 127 C245.49619308 127.25705719 244.99238617 127.51411438 244.47331238 127.77896118 C201.2656474 149.58217015 201.2656474 149.58217015 158.61938477 172.44799805 C157.77432373 172.91633057 156.9292627 173.38466309 156.05859375 173.8671875 C155.31923584 174.28081543 154.57987793 174.69444336 153.81811523 175.12060547 C152 176 152 176 150 176 C150 194.48 150 212.96 150 232 C146.46084254 231.29216851 143.76406736 230.6284124 140.49609375 229.3359375 C139.67302734 229.01882812 138.84996094 228.70171875 138.00195312 228.375 C136.28627399 227.70597661 134.57273019 227.03145233 132.86132812 226.3515625 C132.03955078 226.03703125 131.21777344 225.7225 130.37109375 225.3984375 C129.62786865 225.10630371 128.88464355 224.81416992 128.11889648 224.51318359 C125.63325212 223.91117594 124.36311365 224.04799401 122 225 C120.17522298 227.04658946 118.55686601 229.0513746 116.9375 231.25 C115.96178651 232.53418931 114.98386487 233.81670345 114.00390625 235.09765625 C113.50648926 235.75008301 113.00907227 236.40250977 112.49658203 237.07470703 C110.20788374 240.01902591 107.80127358 242.85627552 105.375 245.6875 C101.08109135 250.7042064 96.90018166 255.79398606 92.77734375 260.953125 C91 263 91 263 89 264 C88.505 236.28 88.505 236.28 88 208 C60.65085945 222.01533068 60.65085945 222.01533068 33.31774902 236.06188965 C31.26396664 237.11781921 29.20876132 238.1709362 27.15332031 239.22363281 C21.3727038 242.18943436 15.61663114 245.18264537 9.94140625 248.34765625 C9.05743164 248.83540527 8.17345703 249.3231543 7.26269531 249.82568359 C5.69865848 250.6949739 4.14346415 251.58050318 2.60058594 252.48681641 C-0.59342338 254.25688785 -2.28892473 255.18443478 -5.90380859 254.24682617 C-8.74187626 253.10394559 -11.41581724 251.87102829 -14.12109375 250.4453125 C-15.11866699 249.92332275 -16.11624023 249.40133301 -17.14404297 248.86352539 C-18.23088379 248.28981201 -19.31772461 247.71609863 -20.4375 247.125 C-22.86537638 245.85448209 -25.29372812 244.58490893 -27.72265625 243.31640625 C-28.37290771 242.97631027 -29.02315918 242.63621429 -29.69311523 242.28581238 C-37.39222527 238.26326767 -45.12578294 234.30809875 -52.85842896 230.3505249 C-65.08554363 224.0924746 -77.304796 217.82002807 -89.5 211.5 C-102.3684287 204.83214609 -115.26302142 198.21595254 -128.16162109 191.60668945 C-138.11852836 186.50455203 -148.07077169 181.39351502 -158.0178833 176.27230835 C-173.20904722 168.45143091 -188.420624 160.67096801 -203.63760376 152.90045166 C-220.44970754 144.31442686 -237.23641174 135.68035535 -254 127 C-251.74760718 124.51029267 -249.55693638 123.09769561 -246.5546875 121.61499023 C-245.65524414 121.1669957 -244.75580078 120.71900116 -243.82910156 120.25743103 C-242.85424805 119.77931473 -241.87939453 119.30119843 -240.875 118.80859375 C-239.85889648 118.30385025 -238.84279297 117.79910675 -237.79589844 117.27906799 C-234.53338577 115.65951559 -231.26694991 114.04808028 -228 112.4375 C-223.748418 110.33521442 -219.49862033 108.22935791 -215.25 106.12109375 C-214.20674561 105.60380707 -213.16349121 105.08652039 -212.08862305 104.55355835 C-204.78529876 100.92027898 -197.54791384 97.17666748 -190.3425293 93.3533783 C-184.27688392 90.13490715 -178.15821519 87.03779918 -172 84 C-164.99443379 80.5216304 -158.02601325 76.99387235 -151.125 73.3125 C-140.78718291 67.80389409 -130.28868945 62.61555296 -119.79345703 57.4152832 C-111.63272374 53.36412359 -103.54084302 49.20213739 -95.48825073 44.94010925 C-86.41735741 40.14704635 -77.2745919 35.4964117 -68.13156128 30.84286499 C-62.98594766 28.22370436 -57.84244142 25.60041447 -52.69921875 22.9765625 C-51.69027054 22.46185898 -50.68132233 21.94715546 -49.64179993 21.41685486 C-37.93418167 15.44057135 -26.25920989 9.40182466 -14.59741211 3.33666992 C-13.74026611 2.89556885 -12.88312012 2.45446777 -12 2 C-11.02490479 1.42805908 -10.04980957 0.85611816 -9.04516602 0.2668457 C-5.39252276 -1.25272183 -3.76825382 -1.07571634 0 0 Z " fill="#D9AC80" transform="translate(260,1)"/>
<path d="M0 0 C0 84.81 0 169.62 0 257 C-21.80718387 268.4774652 -21.80718387 268.4774652 -29.6953125 272.48828125 C-30.59953949 272.94941818 -31.50376648 273.41055511 -32.43539429 273.88566589 C-34.34720326 274.86050464 -36.2592838 275.83481098 -38.17163086 276.80859375 C-43.33704636 279.43891197 -48.50036051 282.07335124 -53.6640625 284.70703125 C-54.70842468 285.23954498 -55.75278687 285.77205872 -56.82879639 286.32070923 C-66.72569874 291.36780319 -76.61368506 296.43220772 -86.5 301.5 C-101.15978252 309.01351062 -115.8277116 316.51094169 -130.5 324 C-145.21374666 331.51029447 -159.92320642 339.02883249 -174.625 346.5625 C-188.59600278 353.7213848 -202.56964971 360.87507139 -216.54730225 368.02096558 C-218.53601473 369.03770445 -220.52466362 370.05456773 -222.51324463 371.07156372 C-225.28077843 372.48687685 -228.04855661 373.90171091 -230.81640625 375.31640625 C-231.62915512 375.73212891 -232.44190399 376.14785156 -233.27928162 376.57617188 C-234.79449905 377.35035045 -236.31050352 378.12299127 -237.8274231 378.89382935 C-239.31325118 379.65034085 -240.79626998 380.41238859 -242.27682495 381.1791687 C-247.77925882 384 -247.77925882 384 -250 384 C-250 299.52 -250 215.04 -250 128 C-229.53218503 116.62899168 -229.53218503 116.62899168 -219.0625 111.5 C-211.56135176 107.78610831 -204.08147494 104.04840073 -196.6875 100.125 C-188.93951278 96.01488803 -181.16837459 91.95134127 -173.38150024 87.91546631 C-172.04756965 87.22375952 -170.71405041 86.53125887 -169.38095093 85.83795166 C-167.51280789 84.8665325 -165.64331834 83.89775639 -163.7734375 82.9296875 C-162.14027588 82.08253174 -162.14027588 82.08253174 -160.47412109 81.21826172 C-158 80 -158 80 -157 80 C-156.67 98.48 -156.34 116.96 -156 136 C-146.81511325 125.32831072 -146.81511325 125.32831072 -137.94140625 114.4453125 C-135.02889583 110.77683861 -132.05087747 107.16266915 -129.078125 103.54296875 C-127.03457307 101.04230652 -125.0129881 98.52530263 -123 96 C-114 98 -114 98 -96 105 C-96 86.52 -96 68.04 -96 49 C-82.42286683 41.64571953 -69.01077508 34.43263973 -55.203125 27.59765625 C-50.41008073 25.21786223 -45.6657065 22.75574342 -40.9375 20.25 C-33.11662513 16.1104957 -25.28350239 11.99534012 -17.43240356 7.91345215 C-16.10663944 7.22332225 -14.78166116 6.53168053 -13.45748901 5.83850098 C-11.59734441 4.86502325 -9.7345788 3.89675177 -7.87109375 2.9296875 C-6.78755615 2.36491699 -5.70401855 1.80014648 -4.58764648 1.21826172 C-2 0 -2 0 0 0 Z " fill="#A67E4F" transform="translate(506,128)"/>
<path d="M0 0 C0.98720535 0.49500755 0.98720535 0.49500755 1.99435425 1.00001526 C3.39266771 1.70252892 4.78954076 2.40791598 6.18505859 3.1159668 C8.24675109 4.16201096 10.31229594 5.20004013 12.37890625 6.23632812 C20.60491616 10.37335385 28.76618655 14.62626708 36.90710449 18.927948 C44.98495966 23.19128312 53.11184432 27.35646713 61.246521 31.51010132 C65.7203114 33.79460253 70.19208396 36.08304838 74.6640625 38.37109375 C75.56015228 38.82947128 76.45624207 39.28784882 77.37948608 39.76011658 C85.61214935 43.97249924 93.83529802 48.20319334 102.0546875 52.44140625 C103.39208907 53.13094226 104.72949141 53.82047676 106.06689453 54.51000977 C108.07078189 55.5431751 110.07466813 56.57634256 112.07852173 57.60957336 C119.94244375 61.66377583 127.81119925 65.70857554 135.6796875 69.75390625 C148.41458594 76.30162276 161.14688403 82.85436207 173.87548828 89.41430664 C175.23209394 90.1134487 176.58870201 90.81258607 177.9453125 91.51171875 C178.61678314 91.85776657 179.28825378 92.20381439 179.98007202 92.56034851 C184.95679289 95.12474723 189.93521048 97.68583569 194.9140625 100.24609375 C209.37146059 107.68208307 223.81840054 115.13324941 238.1796875 122.75390625 C238.1796875 123.41390625 238.1796875 124.07390625 238.1796875 124.75390625 C237.17107666 125.27073975 236.16246582 125.78757324 235.12329102 126.32006836 C217.90932053 135.14153053 200.69567349 143.96368849 183.49743652 152.8157959 C181.44365414 153.87172546 179.38844882 154.92484245 177.33300781 155.97753906 C171.5523913 158.94334061 165.79631864 161.93655162 160.12109375 165.1015625 C159.23711914 165.58931152 158.35314453 166.07706055 157.44238281 166.57958984 C155.87834598 167.44888015 154.32315165 168.33440943 152.78027344 169.24072266 C149.58626412 171.0107941 147.89076277 171.93834103 144.27587891 171.00073242 C141.43781124 169.85785184 138.76387026 168.62493454 136.05859375 167.19921875 C135.06102051 166.677229 134.06344727 166.15523926 133.03564453 165.61743164 C131.94880371 165.04371826 130.86196289 164.47000488 129.7421875 163.87890625 C127.31431112 162.60838834 124.88595938 161.33881518 122.45703125 160.0703125 C121.80677979 159.73021652 121.15652832 159.39012054 120.48657227 159.03971863 C112.78746223 155.01717392 105.05390456 151.062005 97.32125854 147.10443115 C85.09414387 140.84638085 72.8748915 134.57393432 60.6796875 128.25390625 C47.8112588 121.58605234 34.91666608 114.96985879 22.01806641 108.3605957 C12.06115914 103.25845828 2.10891581 98.14742127 -7.8381958 93.0262146 C-23.02935972 85.20533716 -38.2409365 77.42487426 -53.45791626 69.65435791 C-70.27002004 61.06833311 -87.05672424 52.4342616 -103.8203125 43.75390625 C-101.56791968 41.26419892 -99.37724888 39.85160186 -96.375 38.36889648 C-95.02583496 37.69690468 -95.02583496 37.69690468 -93.64941406 37.01133728 C-92.67456055 36.53322098 -91.69970703 36.05510468 -90.6953125 35.5625 C-89.67920898 35.0577565 -88.66310547 34.553013 -87.61621094 34.03297424 C-84.35369827 32.41342184 -81.08726241 30.80198653 -77.8203125 29.19140625 C-73.56873054 27.08912068 -69.3189002 24.98332989 -65.0703125 22.875 C-64.02714874 22.35757736 -62.98398499 21.84015472 -61.90921021 21.30705261 C-53.13418505 16.94042538 -44.45252783 12.41081157 -35.8001709 7.80685425 C-31.1989023 5.35976179 -26.58152981 2.94651484 -21.9453125 0.56640625 C-20.56279297 -0.16545898 -20.56279297 -0.16545898 -19.15234375 -0.91210938 C-18.26160156 -1.36650391 -17.37085937 -1.82089844 -16.453125 -2.2890625 C-15.67855957 -2.6914917 -14.90399414 -3.0939209 -14.10595703 -3.50854492 C-8.94930684 -5.17253128 -4.54663684 -2.31899117 0 0 Z " fill="#D8AB80" transform="translate(109.8203125,84.24609375)"/>
<path d="M0 0 C2.7878418 1.20483398 2.7878418 1.20483398 5.69921875 2.74609375 C6.8073291 3.32657471 7.91543945 3.90705566 9.05712891 4.50512695 C9.94044891 4.97530746 9.94044891 4.97530746 10.84161377 5.45498657 C12.73611019 6.46337384 14.63558098 7.46177244 16.53662109 8.45776367 C18.57270135 9.52473815 20.60838824 10.59241028 22.64251709 11.6631012 C29.71664905 15.38634205 36.8253079 19.0412723 43.93795776 22.69024658 C46.88997557 24.20503766 49.8407966 25.72215247 52.79164124 27.23922729 C55.03416091 28.39212152 57.27682776 29.54472901 59.51953125 30.69726562 C66.88864592 34.48446134 74.25686486 38.27339901 81.625 42.0625 C82.34955383 42.43508942 83.07410767 42.80767883 83.82061768 43.19155884 C95.06458746 48.97372939 106.30533531 54.76213185 117.54455566 60.55352783 C128.15235331 66.01942607 138.76268647 71.48037481 149.375 76.9375 C150.09975525 77.31019012 150.8245105 77.68288025 151.57122803 78.06686401 C156.71406709 80.71140786 161.85702039 83.3557295 167 86 C172.14527388 88.6454501 177.29050936 91.29097481 182.43563843 93.93670654 C183.88925674 94.68417284 185.34289024 95.43160961 186.79653931 96.17901611 C194.92777646 100.3598384 203.05733032 104.54389252 211.18359375 108.734375 C211.93350586 109.12100815 212.68341797 109.5076413 213.45605469 109.9059906 C217.02724439 111.74720306 220.59814925 113.58896274 224.16845703 115.43188477 C225.45734309 116.09654345 226.74624215 116.76117694 228.03515625 117.42578125 C229.1425415 117.99723877 230.24992676 118.56869629 231.39086914 119.1574707 C235.9131322 121.46617119 240.45854991 123.72927496 245 126 C244.67 145.14 244.34 164.28 244 184 C240.46084254 183.29216851 237.76406736 182.6284124 234.49609375 181.3359375 C233.67302734 181.01882812 232.84996094 180.70171875 232.00195312 180.375 C230.28627399 179.70597661 228.57273019 179.03145233 226.86132812 178.3515625 C226.03955078 178.03703125 225.21777344 177.7225 224.37109375 177.3984375 C223.62786865 177.10630371 222.88464355 176.81416992 222.11889648 176.51318359 C219.63325212 175.91117594 218.36311365 176.04799401 216 177 C214.17522298 179.04658946 212.55686601 181.0513746 210.9375 183.25 C209.96178651 184.53418931 208.98386487 185.81670345 208.00390625 187.09765625 C207.50648926 187.75008301 207.00907227 188.40250977 206.49658203 189.07470703 C204.20788374 192.01902591 201.80127358 194.85627552 199.375 197.6875 C195.08109135 202.7042064 190.90018166 207.79398606 186.77734375 212.953125 C185 215 185 215 183 216 C182.67 197.19 182.34 178.38 182 159 C165.1696169 150.32757552 148.33811805 141.65739342 131.5 133 C120.12274385 127.15020823 108.74737752 121.29677093 97.375 115.4375 C96.69725525 115.08831512 96.0195105 114.73913025 95.32122803 114.37936401 C89.86679002 111.56908662 84.41251709 108.75848887 78.95825195 105.94787598 C56.97765506 94.62123367 34.99088843 83.3066475 13 72 C10.0572823 70.48699738 7.11457231 68.97397976 4.171875 67.4609375 C3.44394745 67.08666122 2.7160199 66.71238495 1.96603394 66.32676697 C-3.83903496 63.34188085 -9.64358042 60.35597789 -15.44796753 57.36976624 C-19.91813683 55.07019679 -24.38923773 52.77244904 -28.8609314 50.47584534 C-31.85812734 48.9362222 -34.85474788 47.39548145 -37.85125732 45.85452271 C-39.2576242 45.13160499 -40.66423115 44.40915407 -42.07110596 43.68722534 C-50.10639321 39.56365836 -58.09733997 35.37439342 -66 31 C-63.66306704 28.38925884 -61.31148937 26.97578435 -58.18066406 25.42797852 C-57.2024469 24.94059708 -56.22422974 24.45321564 -55.21636963 23.95106506 C-54.1601239 23.43225266 -53.10387817 22.91344025 -52.015625 22.37890625 C-50.92666931 21.83773666 -49.83771362 21.29656708 -48.71575928 20.73899841 C-45.22996038 19.00780936 -41.74021014 17.28477596 -38.25 15.5625 C-34.77475809 13.84245266 -31.30038508 12.12068322 -27.8270874 10.39671326 C-25.66581389 9.32451166 -23.50330989 8.25478582 -21.3394165 7.18788147 C-20.3485907 6.69734787 -19.35776489 6.20681427 -18.33691406 5.70141602 C-17.40818481 5.24268097 -16.47945557 4.78394592 -15.52258301 4.31130981 C-13.31388071 3.16316405 -11.25068096 1.91635088 -9.15527344 0.57788086 C-5.39934868 -1.30037213 -3.95706969 -1.24951385 0 0 Z " fill="#F1D2B9" transform="translate(166,49)"/>
<path d="M0 0 C0 18.15 0 36.3 0 55 C-3.53915746 54.29216851 -6.23593264 53.6284124 -9.50390625 52.3359375 C-10.73850586 51.86027344 -10.73850586 51.86027344 -11.99804688 51.375 C-13.71372601 50.70597661 -15.42726981 50.03145233 -17.13867188 49.3515625 C-18.37133789 48.87976563 -18.37133789 48.87976563 -19.62890625 48.3984375 C-20.37213135 48.10630371 -21.11535645 47.81416992 -21.88110352 47.51318359 C-24.36674788 46.91117594 -25.63688635 47.04799401 -28 48 C-29.82477702 50.04658946 -31.44313399 52.0513746 -33.0625 54.25 C-34.03821349 55.53418931 -35.01613513 56.81670345 -35.99609375 58.09765625 C-36.74221924 59.07629639 -36.74221924 59.07629639 -37.50341797 60.07470703 C-39.79211626 63.01902591 -42.19872642 65.85627552 -44.625 68.6875 C-48.91890865 73.7042064 -53.09981834 78.79398606 -57.22265625 83.953125 C-59 86 -59 86 -61 87 C-61 68.19 -61 49.38 -61 30 C-39.01577197 18.42935367 -39.01577197 18.42935367 -31.46484375 14.6484375 C-30.6086293 14.21866608 -29.75241486 13.78889465 -28.87025452 13.34609985 C-27.10956865 12.46327856 -25.34838105 11.58145715 -23.58666992 10.70068359 C-20.87785101 9.34515077 -18.17232844 7.98317394 -15.46679688 6.62109375 C-13.73717366 5.75481989 -12.00736346 4.88891925 -10.27734375 4.0234375 C-9.47231918 3.61733246 -8.66729462 3.21122742 -7.83787537 2.79281616 C-2.22890272 0 -2.22890272 0 0 0 Z " fill="#D6B9A2" transform="translate(410,178)"/>
</svg>
