<?xml version="1.0" encoding="UTF-8"?>
<svg version="1.1" xmlns="http://www.w3.org/2000/svg" width="512" height="512">
<path d="M0 0 C1.08667969 1.08861328 1.08667969 1.08861328 2.1953125 2.19921875 C3.93481687 3.93630042 5.67877282 5.66895135 7.4296875 7.39453125 C8.23664063 8.19246094 9.04359375 8.99039063 9.875 9.8125 C10.67679688 10.60269531 11.47859375 11.39289063 12.3046875 12.20703125 C15.03085315 15.03197101 17.59890353 17.95412239 20.17041016 20.91870117 C23.11721821 24.27092144 26.18393683 27.50715699 29.25 30.75 C34.76381137 36.60302795 40.22713594 42.49623848 45.6328125 48.44921875 C48.02867335 51.03089719 50.49413854 53.52535033 53 56 C54.29787866 54.75645114 55.58806759 53.5048736 56.875 52.25 C57.59429687 51.55390625 58.31359375 50.8578125 59.0546875 50.140625 C60.86479679 48.14877783 61.94848086 46.4572342 63 44 C63.66 44 64.32 44 65 44 C65 43.34 65 42.68 65 42 C65.680625 41.46375 66.36125 40.9275 67.0625 40.375 C70.0626532 37.94934422 72.34811281 35.40092365 74.83984375 32.4765625 C76.51106963 30.56054585 78.20477918 28.69136024 79.94140625 26.8359375 C80.46532959 26.27575928 80.98925293 25.71558105 81.52905273 25.13842773 C82.56582546 24.03345671 83.60554351 22.93123921 84.64868164 21.83227539 C87.2562251 19.04543383 89.58015668 16.24725207 91.7421875 13.09765625 C92.48726563 12.07542969 93.23234375 11.05320312 94 10 C94.66 10 95.32 10 96 10 C96 9.34 96 8.68 96 8 C98.78990164 4.97760656 101.6907553 2.42536524 105 0 C135.9769236 16.3971416 135.9769236 16.3971416 150.83935547 24.54443359 C158.1197527 28.53141436 165.43056844 32.46021878 172.75 36.375 C173.3410553 36.69115265 173.9321106 37.0073053 174.54107666 37.33303833 C175.13225281 37.6492514 175.72342896 37.96546448 176.33251953 38.29125977 C177.52637162 38.92984198 178.72021927 39.56843247 179.9140625 40.20703125 C180.80111374 40.68149437 180.80111374 40.68149437 181.70608521 41.1655426 C189.9930893 45.59950322 198.26566085 50.060261 206.5390625 54.51953125 C210.94835187 56.89598386 215.36003312 59.26791735 219.7734375 61.63671875 C232.23652611 68.3294261 244.66086698 75.08115797 257 82 C257 85.84772449 256.02890359 86.41474588 253.4375 89.1875 C252.61507813 90.074375 251.79265625 90.96125 250.9453125 91.875 C249.96378596 92.91689686 248.98199619 93.95854578 248 95 C246.85108917 96.22872425 245.70267847 97.45791628 244.5546875 98.6875 C242.01064432 101.40885426 239.46211249 104.12590896 236.91015625 106.83984375 C233.18321446 110.80347547 229.46354183 114.77381183 225.75 118.75 C225.17628662 119.36423828 224.60257324 119.97847656 224.01147461 120.61132812 C219.40826209 125.54705707 214.8473809 130.52027904 210.3046875 135.51171875 C208.25100803 137.72899641 206.15406494 139.88067804 204 142 C209.90998832 143.56102446 215.79581129 144.71731381 221.828125 145.69140625 C222.73955261 145.841577 223.65098022 145.99174774 224.59002686 146.14646912 C227.47618236 146.62160246 230.36302825 147.09235395 233.25 147.5625 C236.15115254 148.0368009 239.0521384 148.51206872 241.95281982 148.98924255 C243.75106693 149.28488322 245.54960029 149.5787893 247.34844971 149.8707428 C248.16319763 150.00435715 248.97794556 150.1379715 249.81738281 150.27563477 C250.53049622 150.39173599 251.24360962 150.50783722 251.97833252 150.62745667 C254.0122765 151.00226226 255.9995688 151.47678734 258 152 C258 152.66 258 153.32 258 154 C256.61743164 155.06225586 256.61743164 155.06225586 254.66015625 156.21484375 C253.93586426 156.64780762 253.21157227 157.08077148 252.46533203 157.52685547 C251.67239746 157.99236816 250.87946289 158.45788086 250.0625 158.9375 C248.39342977 159.93696495 246.72548556 160.93831238 245.05859375 161.94140625 C244.20894043 162.45203613 243.35928711 162.96266602 242.48388672 163.48876953 C238.15596013 166.12193894 233.84698992 168.80675491 229.7071228 171.72860718 C225.82628976 174.41781316 222.32606888 176.32300613 217.80688477 177.7253418 C211.3350619 180.10660008 206.51578058 182.89787155 203 189 C199.21652301 202.8343239 201.442667 218.98227801 202.15130615 233.11773682 C202.57379012 241.81873096 202.84766009 250.5238354 203.07512474 259.23182869 C203.17437648 262.26565423 203.33671835 265.29130176 203.50666809 268.32188416 C204.07659796 281.59745351 204.07659796 281.59745351 201.05136108 285.53860474 C198.73107826 287.08994362 196.61288733 288.05507112 194 289 C193.34 289.66 192.68 290.32 192 291 C189.70241315 292.39221805 187.40008189 293.74125806 185.0625 295.0625 C184.42892578 295.42666016 183.79535156 295.79082031 183.14257812 296.16601562 C180.45284353 297.69613804 177.94340834 299.01886389 175 300 C174.67 300.66 174.34 301.32 174 302 C171.72847896 303.42042684 169.46178347 304.75884535 167.125 306.0625 C166.48691406 306.42666016 165.84882813 306.79082031 165.19140625 307.16601562 C162.48786896 308.69275224 159.95257835 310.01580722 157 311 C156.67 311.66 156.34 312.32 156 313 C154.21765796 314.05281199 152.39897638 315.04474571 150.5625 316 C146.48672431 318.09669666 146.48672431 318.09669666 143 321 C141.02103094 322.24247773 139.01767014 323.44640903 137 324.625 C135.39125 325.57246094 135.39125 325.57246094 133.75 326.5390625 C131 328 131 328 129 328 C128.67 328.66 128.34 329.32 128 330 C123.5 333 123.5 333 121 333 C120.67 333.66 120.34 334.32 120 335 C118.38991245 336.09610898 116.73714081 337.1303066 115.0625 338.125 C114.16660156 338.66382813 113.27070313 339.20265625 112.34765625 339.7578125 C110 341 110 341 108 341 C107.67 341.66 107.34 342.32 107 343 C104.72847896 344.42042684 102.46178347 345.75884535 100.125 347.0625 C99.48691406 347.42666016 98.84882813 347.79082031 98.19140625 348.16601562 C95.48786896 349.69275224 92.95257835 351.01580722 90 352 C89.67 352.66 89.34 353.32 89 354 C86.72847896 355.42042684 84.46178347 356.75884535 82.125 358.0625 C81.48691406 358.42666016 80.84882813 358.79082031 80.19140625 359.16601562 C77.48786896 360.69275224 74.95257835 362.01580722 72 363 C71.67 363.66 71.34 364.32 71 365 C69.21765796 366.05281199 67.39897638 367.04474571 65.5625 368 C61.48672431 370.09669666 61.48672431 370.09669666 58 373 C51.10681225 377.34964302 45.27046563 378.74306819 37.20458984 378.71044922 C36.17544464 378.72563599 35.14629944 378.74082275 34.08596802 378.75646973 C30.71061782 378.7985869 27.33653341 378.80376339 23.9609375 378.8046875 C21.59216814 378.81823523 19.22340368 378.8326646 16.85464478 378.84793091 C11.89694625 378.87329498 6.93968701 378.87864153 1.98193359 378.87158203 C-4.33290501 378.86549739 -10.64533712 378.92329335 -16.9596653 378.99824333 C-21.85179368 379.04663435 -26.74335349 379.05327515 -31.6356926 379.0485878 C-33.96147 379.05260851 -36.28727272 379.07087714 -38.61281204 379.10439682 C-53.54846681 379.29759094 -63.78224814 377.8498871 -76 369 C-77.50569967 368.00331118 -79.01288755 367.00885371 -80.5234375 366.01953125 C-81.20374023 365.55111816 -81.88404297 365.08270508 -82.58496094 364.60009766 C-88.44208358 360.71942825 -94.57353853 357.25401761 -100.625 353.6875 C-103.36767956 352.06723823 -106.10961019 350.44571085 -108.8515625 348.82421875 C-109.52594864 348.42567184 -110.20033478 348.02712494 -110.89515686 347.61650085 C-115.63840181 344.81149418 -120.37191788 341.99064929 -125.09765625 339.15625 C-125.6927298 338.79951706 -126.28780334 338.44278412 -126.90090942 338.07524109 C-131.86079346 335.09590371 -136.78835217 332.06632437 -141.70703125 329.01953125 C-146.1186964 326.31391929 -150.55966908 323.65822222 -155 321 C-156.60818675 320.03534601 -158.21626179 319.07050574 -159.82421875 318.10546875 C-161.0145874 317.39124756 -161.0145874 317.39124756 -162.22900391 316.66259766 C-195.3125 296.8125 -195.3125 296.8125 -197.64453125 295.40625 C-199.34223962 294.39269276 -201.04917551 293.39453521 -202.76171875 292.40625 C-203.66535156 291.8803125 -204.56898438 291.354375 -205.5 290.8125 C-206.3146875 290.34457031 -207.129375 289.87664062 -207.96875 289.39453125 C-210 288 -210 288 -212 285 C-211.10414185 284.53327881 -211.10414185 284.53327881 -210.19018555 284.05712891 C-204.159924 280.91486622 -198.1315868 277.76893821 -192.10449219 274.62060547 C-189.29211878 273.1524917 -186.47821307 271.68735919 -183.6640625 270.22265625 C-176.96953961 266.72905558 -170.302858 263.23955456 -163.8125 259.375 C-159.62729213 256.89021175 -155.36807991 254.6418118 -151 252.5 C-142.96469018 248.5587651 -135.07481057 244.35195665 -127.1875 240.125 C-126.55787354 239.78831299 -125.92824707 239.45162598 -125.27954102 239.10473633 C-123.47048462 238.13683805 -121.66272303 237.16657082 -119.85546875 236.1953125 C-118.79996826 235.62828613 -117.74446777 235.06125977 -116.65698242 234.47705078 C-113.89634036 232.98906406 -113.89634036 232.98906406 -111 231 C-111.65484375 230.5875 -112.3096875 230.175 -112.984375 229.75 C-118.950506 225.97482106 -124.86327721 222.13223956 -130.71875 218.1875 C-133.16353718 216.55764188 -135.6187041 214.95755723 -138.09375 213.375 C-138.7837207 212.92874268 -139.47369141 212.48248535 -140.18457031 212.02270508 C-141.54316405 211.14443686 -142.90700327 210.2742212 -144.27636719 209.4128418 C-145.90431369 208.3530563 -147.46023974 207.18426916 -149 206 C-149 202.44061146 -148.51228853 202.09417838 -146.1875 199.5625 C-145.55714844 198.86640625 -144.92679687 198.1703125 -144.27734375 197.453125 C-143.06481095 196.14700047 -141.85200135 194.84113079 -140.63720703 193.53710938 C-139.66348589 192.49137035 -138.69109853 191.44438799 -137.7199707 190.39624023 C-136.75831864 189.36016036 -135.79217014 188.32823131 -134.82104492 187.30102539 C-132.68779254 185.01014914 -130.90075255 182.83314592 -129.296875 180.13671875 C-128.86890625 179.43160156 -128.4409375 178.72648438 -128 178 C-127.34 178 -126.68 178 -126 178 C-126 177.34 -126 176.68 -126 176 C-124.59332138 174.83348603 -123.183177 173.67095015 -121.7578125 172.52734375 C-119.26368446 170.36022361 -117.20634509 167.90110689 -115.0703125 165.38671875 C-113.46925854 163.54097542 -111.84598889 161.74251255 -110.1796875 159.95703125 C-109.68621826 159.42730713 -109.19274902 158.89758301 -108.68432617 158.35180664 C-107.70352768 157.30221948 -106.71942544 156.25570761 -105.73168945 155.21264648 C-103.32829832 152.63103689 -101.35033222 150.27826319 -100 147 C-104.5076318 141.76930098 -109.13133482 136.65156549 -113.80541992 131.56982422 C-118.97435139 125.94784955 -124.07315006 120.26375353 -129.171875 114.578125 C-132.39965489 110.98407221 -135.63071922 107.39439097 -138.90625 103.84375 C-139.39947754 103.30862793 -139.89270508 102.77350586 -140.40087891 102.22216797 C-141.35981719 101.18318582 -142.32034663 100.14566923 -143.28271484 99.10986328 C-150 91.8321899 -150 91.8321899 -150 89 C-148.97261719 88.43152344 -147.94523437 87.86304688 -146.88671875 87.27734375 C-137.56749338 82.10097886 -137.56749338 82.10097886 -128.5 76.5 C-123.54728236 73.27998989 -118.44974542 70.38427831 -113.27148438 67.546875 C-107.92616783 64.59506628 -102.74787747 61.39678347 -97.55615234 58.18383789 C-92.00544638 54.76166822 -86.38611611 51.45423487 -80.77371216 48.13464355 C-77.25769097 46.05471233 -73.7440711 43.97073271 -70.23046875 41.88671875 C-69.52760239 41.46987823 -68.82473602 41.05303772 -68.10057068 40.62356567 C-57.70868475 34.45750094 -47.35540022 28.22707808 -37 22 C-32.56309202 19.33234679 -28.12546499 16.66589429 -23.6875 14 C-22.19391968 13.1013623 -22.19391968 13.1013623 -20.67016602 12.18457031 C-13.81314484 8.06563776 -6.91806589 4.01551426 0 0 Z " fill="#DAB78D" transform="translate(233,67)"/>
<path d="M0 0 C0.20859786 12.02173302 0.36847856 24.04303515 0.46630955 36.06620979 C0.51326638 41.64928258 0.57694521 47.23111673 0.67895508 52.81347656 C0.77680053 58.20171124 0.83056897 63.58875537 0.85389519 68.97780991 C0.87051573 71.03286359 0.90297419 73.08785258 0.95157051 75.14239883 C1.31875072 91.31011402 1.31875072 91.31011402 -1.99319458 95.55413818 C-4.30056144 97.09662104 -6.40232997 98.05988943 -9 99 C-9.66 99.66 -10.32 100.32 -11 101 C-13.29758685 102.39221805 -15.59991811 103.74125806 -17.9375 105.0625 C-18.57107422 105.42666016 -19.20464844 105.79082031 -19.85742188 106.16601562 C-22.54715647 107.69613804 -25.05659166 109.01886389 -28 110 C-28.33 110.66 -28.66 111.32 -29 112 C-31.27152104 113.42042684 -33.53821653 114.75884535 -35.875 116.0625 C-36.51308594 116.42666016 -37.15117187 116.79082031 -37.80859375 117.16601562 C-40.51213104 118.69275224 -43.04742165 120.01580722 -46 121 C-46.33 121.66 -46.66 122.32 -47 123 C-48.78234204 124.05281199 -50.60102362 125.04474571 -52.4375 126 C-56.51327569 128.09669666 -56.51327569 128.09669666 -60 131 C-61.97896906 132.24247773 -63.98232986 133.44640903 -66 134.625 C-67.0725 135.25664062 -68.145 135.88828125 -69.25 136.5390625 C-72 138 -72 138 -74 138 C-74.33 138.66 -74.66 139.32 -75 140 C-79.5 143 -79.5 143 -82 143 C-82.33 143.66 -82.66 144.32 -83 145 C-84.61008755 146.09610898 -86.26285919 147.1303066 -87.9375 148.125 C-88.83339844 148.66382813 -89.72929687 149.20265625 -90.65234375 149.7578125 C-93 151 -93 151 -95 151 C-95.33 151.66 -95.66 152.32 -96 153 C-98.27152104 154.42042684 -100.53821653 155.75884535 -102.875 157.0625 C-103.51308594 157.42666016 -104.15117187 157.79082031 -104.80859375 158.16601562 C-107.51213104 159.69275224 -110.04742165 161.01580722 -113 162 C-113.33 162.66 -113.66 163.32 -114 164 C-116.27152104 165.42042684 -118.53821653 166.75884535 -120.875 168.0625 C-121.51308594 168.42666016 -122.15117187 168.79082031 -122.80859375 169.16601562 C-125.51213104 170.69275224 -128.04742165 172.01580722 -131 173 C-131.33 173.66 -131.66 174.32 -132 175 C-133.78234204 176.05281199 -135.60102362 177.04474571 -137.4375 178 C-141.51327569 180.09669666 -141.51327569 180.09669666 -145 183 C-151.89318775 187.34964302 -157.72953437 188.74306819 -165.79541016 188.71044922 C-166.82455536 188.72563599 -167.85370056 188.74082275 -168.91403198 188.75646973 C-172.28938218 188.7985869 -175.66346659 188.80376339 -179.0390625 188.8046875 C-181.40783186 188.81823523 -183.77659632 188.8326646 -186.14535522 188.84793091 C-191.10305375 188.87329498 -196.06031299 188.87864153 -201.01806641 188.87158203 C-207.33290501 188.86549739 -213.64533712 188.92329335 -219.9596653 188.99824333 C-224.85179368 189.04663435 -229.74335349 189.05327515 -234.6356926 189.0485878 C-236.96147 189.05260851 -239.28727272 189.07087714 -241.61281204 189.10439682 C-256.54846681 189.29759094 -266.78224814 187.8498871 -279 179 C-280.50569967 178.00331118 -282.01288755 177.00885371 -283.5234375 176.01953125 C-284.20374023 175.55111816 -284.88404297 175.08270508 -285.58496094 174.60009766 C-291.44208358 170.71942825 -297.57353853 167.25401761 -303.625 163.6875 C-306.36767956 162.06723823 -309.10961019 160.44571085 -311.8515625 158.82421875 C-312.52594864 158.42567184 -313.20033478 158.02712494 -313.89515686 157.61650085 C-318.63840181 154.81149418 -323.37191788 151.99064929 -328.09765625 149.15625 C-328.6927298 148.79951706 -329.28780334 148.44278412 -329.90090942 148.07524109 C-334.86079346 145.09590371 -339.78835217 142.06632437 -344.70703125 139.01953125 C-349.1186964 136.31391929 -353.55966908 133.65822222 -358 131 C-359.60818675 130.03534601 -361.21626179 129.07050574 -362.82421875 128.10546875 C-363.61779785 127.62932129 -364.41137695 127.15317383 -365.22900391 126.66259766 C-398.3125 106.8125 -398.3125 106.8125 -400.64453125 105.40625 C-402.34223962 104.39269276 -404.04917551 103.39453521 -405.76171875 102.40625 C-406.66535156 101.8803125 -407.56898438 101.354375 -408.5 100.8125 C-409.72203125 100.11060547 -409.72203125 100.11060547 -410.96875 99.39453125 C-413 98 -413 98 -415 95 C-414.40276123 94.68885254 -413.80552246 94.37770508 -413.19018555 94.05712891 C-407.159924 90.91486622 -401.1315868 87.76893821 -395.10449219 84.62060547 C-392.29211878 83.1524917 -389.47821307 81.68735919 -386.6640625 80.22265625 C-379.96953961 76.72905558 -373.302858 73.23955456 -366.8125 69.375 C-362.00907717 66.52317304 -357.08366673 64.0090616 -352.0703125 61.55566406 C-343.45581181 57.3007448 -335.02904799 52.68281034 -326.58398438 48.10351562 C-325.9894194 47.78240814 -325.39485443 47.46130066 -324.78227234 47.13046265 C-323.14841628 46.24804359 -321.51617239 45.36264137 -319.8840332 44.47705078 C-317.27381015 43.14023122 -314.79364999 41.89412313 -312 41 C-309.37109375 42.09765625 -309.37109375 42.09765625 -306.4375 44.0625 C-305.61100952 44.6035437 -305.61100952 44.6035437 -304.76782227 45.15551758 C-303.52516223 45.9708604 -302.28774316 46.79422731 -301.0546875 47.62402344 C-298.85314165 49.09834763 -296.63257945 50.53995339 -294.40625 51.9765625 C-291.01602413 54.16524498 -287.63208192 56.36307339 -284.25390625 58.5703125 C-280.80766833 60.8217779 -277.35749581 63.06692575 -273.90234375 65.3046875 C-265.81420217 70.54478155 -257.75288272 75.81795213 -249.75 81.1875 C-243.38419678 85.45723754 -236.94635521 89.58667225 -230.42724609 93.61816406 C-226.21070236 96.22794665 -222.06515494 98.91529688 -217.9921875 101.74609375 C-215.42095983 103.3644547 -212.73085127 104.67325498 -210 106 C-207.9758623 104.00325664 -205.95570237 102.00272875 -203.9375 100 C-203.37611328 99.44699219 -202.81472656 98.89398438 -202.23632812 98.32421875 C-198.58413732 94.69289761 -195.15112382 90.93163453 -191.78393555 87.03564453 C-188.75938335 83.58433534 -185.5947153 80.26706948 -182.4375 76.9375 C-181.03494822 75.4520193 -179.6326089 73.96633799 -178.23046875 72.48046875 C-177.52841309 71.73716309 -176.82635742 70.99385742 -176.10302734 70.22802734 C-172.81210305 66.74149668 -169.52803851 63.24864626 -166.25 59.75 C-165.67822021 59.142771 -165.10644043 58.53554199 -164.51733398 57.90991211 C-163.98052002 57.33635986 -163.44370605 56.76280762 -162.890625 56.171875 C-162.38700439 55.6351416 -161.88338379 55.0984082 -161.36450195 54.54541016 C-159.80256474 52.83286825 -159.80256474 52.83286825 -157.93359375 50.0703125 C-156 48 -156 48 -153.51953125 47.6953125 C-152.62621094 47.83710938 -151.73289062 47.97890625 -150.8125 48.125 C-149.843125 48.26292969 -148.87375 48.40085937 -147.875 48.54296875 C-146.92625 48.69378906 -145.9775 48.84460938 -145 49 C-143.4381542 49.15268044 -141.87567541 49.29909384 -140.3125 49.4375 C-136.84707332 49.76390291 -133.59459925 50.61621253 -130.2277832 51.48071289 C-125.53394547 52.57482718 -120.7452138 53.1663988 -115.97851562 53.85546875 C-112.33070954 54.40308129 -108.9497008 55.01532511 -105.41015625 56.09375 C-100.63847204 57.36182645 -96.52326835 58.11148236 -91.94042969 56.09277344 C-89.67974094 54.77622384 -87.53110837 53.35660511 -85.375 51.875 C-83.68777891 50.76259768 -82.00026741 49.65063575 -80.3125 48.5390625 C-79.43980469 47.95543945 -78.56710937 47.37181641 -77.66796875 46.77050781 C-73.28179991 43.85977424 -68.82447436 41.06255875 -64.375 38.25 C-57.51560324 33.88663627 -50.66457669 29.51016928 -43.81738281 25.12768555 C-41.73807322 23.79721936 -39.6579998 22.46794614 -37.57714844 21.13989258 C-32.61347929 17.96900303 -27.65966613 14.78503694 -22.7346344 11.55450439 C-20.42515002 10.04080001 -18.11082335 8.53459348 -15.79605103 7.0289917 C-14.15309202 5.95584905 -12.5172671 4.87180968 -10.8815918 3.78759766 C-9.89199463 3.14483887 -8.90239746 2.50208008 -7.8828125 1.83984375 C-7.01027832 1.26613037 -6.13774414 0.69241699 -5.23876953 0.10131836 C-3 -1 -3 -1 0 0 Z " fill="#B39068" transform="translate(436,257)"/>
<path d="M0 0 C2.73539876 0.94618792 5.11220649 2.23290818 7.64111328 3.64355469 C8.72279785 4.24498291 9.80448242 4.84641113 10.91894531 5.46606445 C12.09209957 6.12523929 13.26511021 6.7846698 14.43798828 7.44433594 C15.65649668 8.12538522 16.87508504 8.80629145 18.09375 9.48706055 C26.87824501 14.40628249 35.58525673 19.4528963 44.26513672 24.55444336 C51.3560721 28.71420161 58.50437997 32.7595055 65.68798828 36.75683594 C74.96104347 41.91814464 84.15179164 47.20376837 93.3046875 52.57495117 C100.10320558 56.55850141 106.94359213 60.45948944 113.81298828 64.31933594 C117.60753425 66.46011008 121.39881497 68.60656743 125.18798828 70.75683594 C126.2252002 71.34480957 127.26241211 71.9327832 128.33105469 72.53857422 C131.43666299 74.3070258 134.5322299 76.09188852 137.62548828 77.88183594 C138.58600098 78.42654541 139.54651367 78.97125488 140.53613281 79.5324707 C141.40995605 80.04221436 142.2837793 80.55195801 143.18408203 81.07714844 C143.95937256 81.5233252 144.73466309 81.96950195 145.53344727 82.42919922 C146.0794458 82.86731934 146.62544434 83.30543945 147.18798828 83.75683594 C147.18798828 84.74683594 147.18798828 85.73683594 147.18798828 86.75683594 C145.48925781 88.12866211 145.48925781 88.12866211 143.07080078 89.54980469 C141.71535156 90.35901367 141.71535156 90.35901367 140.33251953 91.18457031 C139.33607422 91.76529297 138.33962891 92.34601563 137.31298828 92.94433594 C135.19004509 94.20773955 133.06767022 95.47209854 130.94580078 96.73730469 C129.83366211 97.39649902 128.72152344 98.05569336 127.57568359 98.73486328 C122.07691623 102.01684594 116.63448108 105.3890729 111.18798828 108.75683594 C102.10154489 114.35877675 92.99459712 119.92563667 83.87158203 125.46777344 C76.62783321 129.8718133 69.40495777 134.30906961 62.18798828 138.75683594 C54.03582259 143.78095694 45.87212047 148.78495431 37.68798828 153.75683594 C29.08905478 158.98161941 20.50808858 164.2349438 11.93798828 169.50683594 C11.36733643 169.85762207 10.79668457 170.2084082 10.20874023 170.56982422 C8.59205099 171.56380783 6.97594459 172.55873922 5.35986328 173.55371094 C3.96912598 174.40980957 3.96912598 174.40980957 2.55029297 175.28320312 C0.74335003 176.41039489 -1.03999773 177.57549328 -2.81201172 178.75683594 C-6.42023762 178.42036824 -8.94913538 177.30516534 -11.97998047 175.37792969 C-12.77686279 174.87737061 -13.57374512 174.37681152 -14.39477539 173.86108398 C-15.25433838 173.31105713 -16.11390137 172.76103027 -16.99951172 172.19433594 C-18.894966 171.0010253 -20.79081735 169.80834521 -22.68701172 168.61621094 C-23.68603516 167.98521484 -24.68505859 167.35421875 -25.71435547 166.70410156 C-30.95192674 163.41163084 -36.22705315 160.18052917 -41.49951172 156.94433594 C-43.71185934 155.58383453 -45.92409796 154.22315585 -48.13623047 152.86230469 C-49.24015137 152.18345215 -50.34407227 151.50459961 -51.48144531 150.80517578 C-55.84606152 148.12088242 -60.20994069 145.43539245 -64.57373047 142.74975586 C-66.73381964 141.42038253 -68.89397597 140.09111833 -71.05419922 138.76196289 C-76.50969213 135.40520992 -81.96435613 132.04712302 -87.41748047 128.68652344 C-98.73543968 121.71344072 -110.06814953 114.76629104 -121.43017578 107.86523438 C-131.2606922 101.88819752 -141.04039386 95.8295583 -150.81201172 89.75683594 C-147.35684663 86.87469949 -143.85963139 84.49259481 -139.96435547 82.24511719 C-139.12400505 81.75719444 -139.12400505 81.75719444 -138.26667786 81.25941467 C-137.05978827 80.55883311 -135.85192723 79.85992288 -134.64318848 79.16253662 C-131.37460815 77.27561783 -128.11464184 75.37395311 -124.85498047 73.47167969 C-124.18455719 73.08059021 -123.51413391 72.68950073 -122.82339478 72.28656006 C-116.02317165 68.31099466 -109.28684284 64.23326996 -102.56201172 60.13183594 C-101.40724547 59.42811024 -100.25246035 58.72441552 -99.09765625 58.02075195 C-96.81082429 56.62719478 -94.52405198 55.23353987 -92.23730469 53.83984375 C-86.54528346 50.37517058 -80.83613508 46.93908118 -75.12451172 43.50683594 C-74.11549805 42.89888184 -73.10648437 42.29092773 -72.06689453 41.66455078 C-67.10111653 38.68357462 -62.10505614 35.78935394 -57.0300293 32.99902344 C-52.96354552 30.72161348 -48.98695074 28.29408583 -44.99951172 25.88183594 C-38.4936684 21.96108006 -31.97073988 18.07883939 -25.40185547 14.26464844 C-17.54150446 9.69358341 -17.54150446 9.69358341 -9.88623047 4.79199219 C-8.42636719 3.81552734 -8.42636719 3.81552734 -6.93701172 2.81933594 C-6.05271484 2.2121875 -5.16841797 1.60503906 -4.25732422 0.97949219 C-1.81201172 -0.24316406 -1.81201172 -0.24316406 0 0 Z " fill="#977657" transform="translate(285.81201171875,125.2431640625)"/>
<path d="M0 0 C0.76183594 0.46921875 1.52367188 0.9384375 2.30859375 1.421875 C3.07300781 1.88078125 3.83742188 2.3396875 4.625 2.8125 C6.34384128 3.91407784 8.04742908 5.03943189 9.74609375 6.171875 C9.9520874 8.01982117 9.9520874 8.01982117 9.72167969 10.29174805 C9.64826859 11.14457367 9.57485748 11.99739929 9.4992218 12.87606812 C9.36618904 14.2657933 9.36618904 14.2657933 9.23046875 15.68359375 C6.96863464 35.63087428 6.96863464 35.63087428 11.58740234 54.50878906 C16.60219515 59.5901998 22.85551472 62.14808579 29.41455078 64.73730469 C35.07930392 67.17656084 40.01602626 70.68216575 45.12109375 74.109375 C47.21915938 75.45728151 49.32074661 76.79972192 51.42578125 78.13671875 C57.70253668 82.14326146 63.97472707 86.15690422 70.24609375 90.171875 C76.58889883 94.23194809 82.93222286 98.29120307 89.27734375 102.34765625 C107.482351 113.98846975 107.482351 113.98846975 116.43359375 119.796875 C123.0368307 124.0811812 129.66787467 128.32091279 136.30859375 132.546875 C137.22535889 133.13033691 138.14212402 133.71379883 139.08666992 134.31494141 C139.96556885 134.87358887 140.84446777 135.43223633 141.75 136.0078125 C142.59062988 136.54374023 143.43125977 137.07966797 144.29736328 137.63183594 C145.91237131 138.6475359 147.53830852 139.64608919 149.17529297 140.62597656 C149.90893066 141.06651367 150.64256836 141.50705078 151.3984375 141.9609375 C152.37091431 142.53255615 152.37091431 142.53255615 153.36303711 143.11572266 C153.8194458 143.46425293 154.27585449 143.8127832 154.74609375 144.171875 C154.74609375 144.831875 154.74609375 145.491875 154.74609375 146.171875 C141.07165619 146.38129714 127.39760612 146.54077035 113.72188568 146.63818455 C107.37016261 146.68496205 101.01954439 146.74831208 94.66845703 146.85083008 C88.52806394 146.94931587 82.38872691 147.00257845 76.24760437 147.02577019 C73.9161468 147.04227632 71.58474074 147.07450723 69.2537384 147.12344551 C54.24696751 147.4256977 44.01393536 146.0963299 31.74609375 137.171875 C30.24067371 136.17476388 28.73356684 135.18017785 27.22265625 134.19140625 C26.54235352 133.72299316 25.86205078 133.25458008 25.16113281 132.77197266 C19.30401017 128.89130325 13.17255522 125.42589261 7.12109375 121.859375 C4.37841419 120.23911323 1.63648356 118.61758585 -1.10546875 116.99609375 C-1.77985489 116.59754684 -2.45424103 116.19899994 -3.14906311 115.78837585 C-7.89230806 112.98336918 -12.62582413 110.16252429 -17.3515625 107.328125 C-17.94663605 106.97139206 -18.54170959 106.61465912 -19.15481567 106.24711609 C-24.11469971 103.26777871 -29.04225842 100.23819937 -33.9609375 97.19140625 C-38.37260265 94.48579429 -42.81357533 91.83009722 -47.25390625 89.171875 C-48.862093 88.20722101 -50.47016804 87.24238074 -52.078125 86.27734375 C-52.8717041 85.80119629 -53.6652832 85.32504883 -54.48291016 84.83447266 C-87.56640625 64.984375 -87.56640625 64.984375 -89.8984375 63.578125 C-91.59614587 62.56456776 -93.30308176 61.56641021 -95.015625 60.578125 C-95.91925781 60.0521875 -96.82289062 59.52625 -97.75390625 58.984375 C-98.56859375 58.51644531 -99.38328125 58.04851562 -100.22265625 57.56640625 C-102.25390625 56.171875 -102.25390625 56.171875 -104.25390625 53.171875 C-103.65666748 52.86072754 -103.05942871 52.54958008 -102.4440918 52.22900391 C-96.41383025 49.08674122 -90.38549305 45.94081321 -84.35839844 42.79248047 C-81.54602503 41.3243667 -78.73211932 39.85923419 -75.91796875 38.39453125 C-69.22344586 34.90093058 -62.55676425 31.41142956 -56.06640625 27.546875 C-51.26350568 24.69535811 -46.33806043 22.18289569 -41.32641602 19.72753906 C-32.68921175 15.45791441 -24.23156442 10.84367217 -15.75 6.27539062 C-14.85544098 5.7937294 -14.85544098 5.7937294 -13.94281006 5.30233765 C-12.3028395 4.41880416 -10.66360375 3.53390714 -9.02441406 2.64892578 C-8.11014648 2.16149902 -7.19587891 1.67407227 -6.25390625 1.171875 C-5.51760986 0.7588916 -4.78131348 0.3459082 -4.02270508 -0.07958984 C-2.25390625 -0.828125 -2.25390625 -0.828125 0 0 Z " fill="#010100" transform="translate(125.25390625,298.828125)"/>
<path d="M0 0 C0.19175954 45.27295116 0.19175954 45.27295116 -0.64428711 66.31982422 C-0.9284192 73.49251347 -1.04882716 80.63371671 -0.98033142 87.8109436 C-0.94497312 94.14158458 -1.19598969 100.44590158 -1.47265625 106.76953125 C-1.86630799 116.33447563 -2.11866316 125.89271867 -2.24609375 135.46484375 C-2.2710643 137.25291946 -2.2710643 137.25291946 -2.29653931 139.07711792 C-2.36289291 143.95248107 -2.42591758 148.82781776 -2.47680664 153.70336914 C-2.51624456 157.33236598 -2.56769416 160.96102932 -2.62109375 164.58984375 C-2.6295079 165.69585434 -2.63792206 166.80186493 -2.64659119 167.94139099 C-2.67155418 169.46688316 -2.67155418 169.46688316 -2.69702148 171.02319336 C-2.70732895 171.91517929 -2.71763641 172.80716522 -2.72825623 173.72618103 C-3 176 -3 176 -5 179 C-19.60031842 170.1614137 -34.18369352 161.29959083 -48.68359375 152.296875 C-57.98918277 146.52014503 -67.32627842 140.79435296 -76.65625 135.05712891 C-79.98009525 133.01224572 -83.30273696 130.96542134 -86.625 128.91796875 C-97.93628544 121.94852451 -109.2626259 115.00551438 -120.61816406 108.10839844 C-130.44868048 102.13136158 -140.22838214 96.07272236 -150 90 C-146.54483491 87.11786355 -143.04761967 84.73575887 -139.15234375 82.48828125 C-138.31199333 82.00035851 -138.31199333 82.00035851 -137.45466614 81.50257874 C-136.24777656 80.80199718 -135.03991552 80.10308694 -133.83117676 79.40570068 C-130.56259643 77.5187819 -127.30263012 75.61711717 -124.04296875 73.71484375 C-123.37254547 73.32375427 -122.70212219 72.93266479 -122.01138306 72.52972412 C-115.21115993 68.55415872 -108.47483112 64.47643402 -101.75 60.375 C-100.59523376 59.6712743 -99.44044864 58.96757958 -98.28564453 58.26391602 C-95.99881257 56.87035884 -93.71204026 55.47670393 -91.42529297 54.08300781 C-85.73327175 50.61833464 -80.02412336 47.18224524 -74.3125 43.75 C-73.30348633 43.1420459 -72.29447266 42.5340918 -71.25488281 41.90771484 C-66.28910481 38.92673869 -61.29304442 36.032518 -56.21801758 33.2421875 C-52.1515338 30.96477754 -48.17493902 28.53724989 -44.1875 26.125 C-37.68165668 22.20424412 -31.15872816 18.32200345 -24.58984375 14.5078125 C-17.33077816 10.28156919 -10.20176902 5.88810279 -3.15234375 1.3203125 C-1 0 -1 0 0 0 Z " fill="#B6936B" transform="translate(285,125)"/>
<path d="M0 0 C4.66301783 1.608247 8.48029479 4.11115955 12.5625 6.8125 C14.0858976 7.80995677 15.60933683 8.80734997 17.1328125 9.8046875 C17.92848633 10.32772461 18.72416016 10.85076172 19.54394531 11.38964844 C22.00033284 13.00021823 24.46361458 14.59961826 26.9296875 16.1953125 C35.07629771 21.46800845 43.19171772 26.7806807 51.25 32.1875 C57.61579943 36.45724352 64.05364489 40.58667231 70.57275391 44.61816406 C74.78929764 47.22794665 78.93484506 49.91529688 83.0078125 52.74609375 C85.57904017 54.3644547 88.26914873 55.67325498 91 57 C93.0241377 55.00325664 95.04429763 53.00272875 97.0625 51 C97.90458008 50.17048828 97.90458008 50.17048828 98.76367188 49.32421875 C102.41586268 45.69289761 105.84887618 41.93163453 109.21606445 38.03564453 C112.24059885 34.58435565 115.40489618 31.2666744 118.5625 27.9375 C122.71971423 23.54351018 126.87372936 19.1480316 130.9765625 14.703125 C131.60232178 14.02644775 132.22808105 13.34977051 132.87280273 12.65258789 C134.04957343 11.37829389 135.22373091 10.10157974 136.39477539 8.82202148 C136.9283667 8.24524658 137.46195801 7.66847168 138.01171875 7.07421875 C138.47022217 6.57494873 138.92872559 6.07567871 139.40112305 5.5612793 C141.4592347 3.55156422 143.75375947 1.79699242 146 0 C146 11.22 146 22.44 146 34 C144.68 33.67 143.36 33.34 142 33 C142.09516151 34.13254967 142.09516151 34.13254967 142.19224548 35.28797913 C142.90635324 44.12128425 143.37140147 52.9560781 143.75390625 61.80859375 C143.81968746 63.3067293 143.88552012 64.80486259 143.95140076 66.30299377 C144.0882352 69.4284108 144.22325536 72.55390027 144.35717773 75.67944336 C144.49265657 78.83551746 144.63136172 81.99142186 144.77319336 85.1472168 C145.56472279 102.77057461 146.25035008 120.35334299 146 138 C137.14713183 133.47070359 128.93464826 128.13378662 120.62890625 122.68359375 C114.71912088 118.80591585 108.76923139 114.99254446 102.8125 111.1875 C101.76884277 110.52032959 100.72518555 109.85315918 99.64990234 109.16577148 C97.5136701 107.80036658 95.3772757 106.43521537 93.24072266 105.0703125 C87.82600663 101.61115988 82.41262869 98.1499177 77 94.6875 C75.95070313 94.01630127 74.90140625 93.34510254 73.8203125 92.65356445 C67.30585139 88.48371225 60.80644043 84.29154973 54.31835938 80.08081055 C48.5667327 76.35380657 42.78502393 72.67489447 37 69 C30.23986908 64.70320254 23.4827731 60.4020783 16.75 56.0625 C16.10804688 55.65064453 15.46609375 55.23878906 14.8046875 54.81445312 C13.54199536 53.99841868 12.29413223 53.15900255 11.06176758 52.29785156 C8.96665919 50.89706203 8.96665919 50.89706203 6.3190918 49.89746094 C2.95761235 48.25759885 1.21710166 47.04560892 -1 44 C-2.73465147 36.91641412 -1.97769259 29.34317732 -1.6875 22.125 C-1.64588578 20.0938373 -1.6087294 18.06257806 -1.57617188 16.03125 C-1.27780887 1.27780887 -1.27780887 1.27780887 0 0 Z " fill="#947354" transform="translate(135,306)"/>
<path d="M0 0 C6.68377547 0.60761595 13.33634853 1.23531868 20 2 C17.81294784 3.70104057 15.8128494 5.09139913 13.3125 6.3125 C10.76197678 7.79078032 10.76197678 7.79078032 10.39599609 10.52203369 C9.91009922 14.78958323 9.60536378 19.04803749 9.3515625 23.33496094 C9.29450134 24.25611694 9.23744019 25.17727295 9.1786499 26.12634277 C8.99125062 29.16218589 8.8081849 32.19827494 8.625 35.234375 C8.49463049 37.35420715 8.36392882 39.4740189 8.23291016 41.59381104 C7.88873504 47.1727338 7.54796973 52.75185891 7.20825195 58.33105469 C6.66522976 67.24604046 6.11871599 76.16080875 5.56903076 85.07538605 C5.37844869 88.17822729 5.19034119 91.28121164 5.00244141 94.38421631 C4.88453671 96.30530378 4.76654015 98.22638562 4.6484375 100.14746094 C4.59749939 100.99975281 4.54656128 101.85204468 4.49407959 102.73016357 C4.1360204 108.50317058 3.61213892 114.2485182 3 120 C0.60701398 117.86593955 0.04564091 117.29040451 -0.47465515 113.9798584 C-0.54460442 112.12101013 -0.54460442 112.12101013 -0.6159668 110.22460938 C-0.66051498 109.19707047 -0.66051498 109.19707047 -0.70596313 108.14877319 C-0.80079826 105.8807481 -0.87514122 103.61254037 -0.94921875 101.34375 C-1.01100162 99.76008496 -1.07399291 98.17646664 -1.13813782 96.59289551 C-1.3038234 92.41524305 -1.45188784 88.23713728 -1.59667969 84.05871582 C-1.71675543 80.67577553 -1.84898079 77.29336474 -1.98198223 73.91091156 C-3.11727881 45.01404246 -3.11727881 45.01404246 -3 34 C-1.68 34.33 -0.36 34.66 1 35 C0.505 17.675 0.505 17.675 0 0 Z " fill="#A89076" transform="translate(280,305)"/>
<path d="M0 0 C-3.76881911 4.39870531 -8.62338872 6.933849 -13.5625 9.8125 C-15.36402328 10.87504499 -17.16480991 11.93883997 -18.96484375 13.00390625 C-19.83093262 13.5158252 -20.69702148 14.02774414 -21.58935547 14.55517578 C-25.4958126 16.89651802 -29.30481638 19.37543041 -33.1015625 21.890625 C-35 23 -35 23 -37 23 C-37.0544207 20.31222198 -37.09387266 17.62556788 -37.125 14.9375 C-37.14175781 14.18533203 -37.15851563 13.43316406 -37.17578125 12.65820312 C-37.22833948 6.58772812 -36.99668625 1.04788333 -32.5625 -3.5 C-22.85020911 -7.58938564 -9.87698881 -2.33614147 0 0 Z " fill="#907356" transform="translate(326,313)"/>
<path d="M0 0 C0.39694497 15.33288856 -0.74622042 30.57478469 -1.79595947 45.86169434 C-1.98544404 48.6406379 -2.16944531 51.41993264 -2.3532629 54.19925594 C-2.57574148 57.55876846 -2.80148733 60.91805651 -3.02734375 64.27734375 C-3.10967758 65.50670151 -3.19201141 66.73605927 -3.27684021 68.00267029 C-3.73535403 74.6828204 -4.27942731 81.34279011 -5 88 C-5.33 88 -5.66 88 -6 88 C-6.11580051 77.11695759 -6.20466802 66.23406151 -6.25906086 55.35052872 C-6.28516559 50.29694117 -6.32057972 45.24377481 -6.37719727 40.19042969 C-6.43148566 35.31451015 -6.46141394 30.43899596 -6.47438622 25.56279755 C-6.4836318 23.70159268 -6.50168639 21.84041025 -6.52865028 19.97937775 C-6.56489925 17.37410887 -6.56994722 14.77051915 -6.56762695 12.16503906 C-6.58560333 11.39395813 -6.60357971 10.6228772 -6.62210083 9.82843018 C-6.58413405 5.89390322 -6.3387425 4.34385701 -3.52702332 1.48968506 C-1 0 -1 0 0 0 Z " fill="#C8A986" transform="translate(288,337)"/>
<path d="M0 0 C0.95458649 8.35263176 1.11039334 16.59784035 1 25 C-4.63098876 21.99935973 -9.88084541 18.81213639 -15 15 C-13.36850022 11.12864458 -10.85839958 8.35381803 -8.0625 5.25 C-7.18722656 4.26515625 -6.31195313 3.2803125 -5.41015625 2.265625 C-3 0 -3 0 0 0 Z " fill="#775D44" transform="translate(276,313)"/>
<path d="" fill="#4D4D33" transform="translate(0,0)"/>
<path d="" fill="#4D4D33" transform="translate(0,0)"/>
<path d="" fill="#4D4D33" transform="translate(0,0)"/>
<path d="" fill="#4D4D33" transform="translate(0,0)"/>
<path d="" fill="#4D4D33" transform="translate(0,0)"/>
<path d="" fill="#4D4D33" transform="translate(0,0)"/>
<path d="" fill="#4D4D33" transform="translate(0,0)"/>
<path d="" fill="#4D4D33" transform="translate(0,0)"/>
<path d="" fill="#4D4D33" transform="translate(0,0)"/>
<path d="" fill="#4D4D33" transform="translate(0,0)"/>
<path d="" fill="#4D4D33" transform="translate(0,0)"/>
<path d="" fill="#4D4D33" transform="translate(0,0)"/>
<path d="" fill="#4D4D33" transform="translate(0,0)"/>
<path d="" fill="#4D4D33" transform="translate(0,0)"/>
<path d="" fill="#4D4D33" transform="translate(0,0)"/>
<path d="" fill="#4D4D33" transform="translate(0,0)"/>
<path d="" fill="#4D4D33" transform="translate(0,0)"/>
<path d="" fill="#4D4D33" transform="translate(0,0)"/>
<path d="" fill="#4D4D33" transform="translate(0,0)"/>
<path d="" fill="#4D4D33" transform="translate(0,0)"/>
<path d="" fill="#4D4D33" transform="translate(0,0)"/>
<path d="" fill="#4D4D33" transform="translate(0,0)"/>
<path d="" fill="#4D4D33" transform="translate(0,0)"/>
</svg>
