<?xml version="1.0" encoding="UTF-8"?>
<svg version="1.1" xmlns="http://www.w3.org/2000/svg" width="512" height="512">
<path d="M0 0 C3.69802924 2.55320504 6.27873363 5.49817857 8.75390625 9.2109375 C8.75390625 10.2009375 8.75390625 11.1909375 8.75390625 12.2109375 C9.41390625 12.2109375 10.07390625 12.2109375 10.75390625 12.2109375 C10.81578125 11.4890625 10.87765625 10.7671875 10.94140625 10.0234375 C12.60937803 4.24968902 17.83018527 1.20798505 22.75390625 -1.7890625 C28.71123785 -3.7748397 34.74380291 -3.51456066 40.56640625 -1.1640625 C46.77716205 1.96869969 50.04833755 6.72215854 52.26171875 13.17578125 C53.01115293 16.27463213 52.95233376 19.03609731 52.75390625 22.2109375 C53.285 21.93378906 53.81609375 21.65664063 54.36328125 21.37109375 C55.42289062 20.82775391 55.42289062 20.82775391 56.50390625 20.2734375 C57.54804687 19.73396484 57.54804687 19.73396484 58.61328125 19.18359375 C65.4556402 16.07456569 72.9562137 16.26581322 79.94140625 18.8359375 C87.92487521 22.42035214 92.53073221 27.08368683 95.75390625 35.2109375 C98.40919753 43.17681133 97.26753022 51.74448657 93.75390625 59.2109375 C94.45515625 59.30890625 95.15640625 59.406875 95.87890625 59.5078125 C105.49553041 61.02347609 114.0812649 63.95917636 120.1640625 72.09765625 C125.67336492 80.53026199 126.52063807 88.24342381 125.75390625 98.2109375 C125.00868741 101.4201169 124.01862051 104.15454471 122.75390625 107.2109375 C123.63755859 107.60152344 123.63755859 107.60152344 124.5390625 108 C132.42412781 112.31105864 136.1880803 121.01307037 138.75390625 129.2109375 C141.03554003 139.02345401 139.221112 149.27652601 134.75390625 158.2109375 C141.2106192 161.52254672 147.71777325 164.57016445 154.4140625 167.36328125 C155.31040909 167.74042267 156.20675568 168.11756409 157.13026428 168.50613403 C159.03977722 169.30911862 160.94992243 170.1106011 162.86065674 170.91067505 C165.85295326 172.16374208 168.8434539 173.42100738 171.83349609 174.67944336 C175.87131289 176.37853494 179.90970366 178.07624773 183.94873047 179.77246094 C191.55010575 182.9649788 199.14974162 186.16154671 206.74362183 189.37185669 C208.84113763 190.25749046 210.94018372 191.13942391 213.03930664 192.02124023 C214.30103188 192.5543168 215.56267458 193.08758881 216.82421875 193.62109375 C217.90461426 194.07621338 218.98500977 194.53133301 220.09814453 195.00024414 C222.75390625 196.2109375 222.75390625 196.2109375 225.75390625 198.2109375 C226.2421875 201.53125 226.2421875 201.53125 225.75390625 205.2109375 C223.734375 207.765625 223.734375 207.765625 220.94140625 210.0859375 C220.4422168 210.51028076 219.94302734 210.93462402 219.42871094 211.37182617 C217.88711594 212.6733645 216.32427657 213.94434865 214.75390625 215.2109375 C213.87863281 215.93152344 213.00335938 216.65210938 212.1015625 217.39453125 C210.32974949 218.8466186 208.552137 220.29165126 206.76953125 221.73046875 C203.20720759 224.66061839 199.72912229 227.6784826 196.25390625 230.7109375 C190.86020916 235.41664556 185.40258928 240.01267121 179.828125 244.50390625 C177.70650231 246.19390625 177.70650231 246.19390625 175.75390625 248.2109375 C182.28561274 254.30947672 188.88182567 260.2263294 195.84375 265.8359375 C199.7777619 269.04651365 203.61867962 272.36018596 207.46313477 275.67700195 C210.37920957 278.18863704 213.30740143 280.6810695 216.27734375 283.12890625 C216.83172119 283.58595947 217.38609863 284.0430127 217.95727539 284.51391602 C219.47682115 285.76233663 221.00001765 287.00630982 222.5234375 288.25 C224.75390625 290.2109375 224.75390625 290.2109375 225.75390625 292.2109375 C225.79389825 294.21053762 225.79737424 296.21140992 225.75390625 298.2109375 C215.39815944 303.57106219 204.93390296 308.40822087 194.13037109 312.79589844 C191.82855041 313.73140309 189.53131367 314.67757933 187.234375 315.625 C185.76457348 316.22717444 184.29453089 316.82876091 182.82421875 317.4296875 C182.1410257 317.71082397 181.45783264 317.99196045 180.75393677 318.28161621 C175.98568502 320.2109375 175.98568502 320.2109375 173.75390625 320.2109375 C173.7627887 321.35019684 173.77167114 322.48945618 173.78082275 323.66323853 C173.86193918 334.40409941 173.92188645 345.14489807 173.96115494 355.88599586 C173.98202205 361.40801391 174.01032411 366.92978451 174.05566406 372.45166016 C174.09915245 377.78144129 174.12304995 383.11098453 174.13341522 388.44092941 C174.14080117 390.47350178 174.15522423 392.50606126 174.17682648 394.53853226 C174.20589994 397.38746438 174.20986057 400.23541584 174.20800781 403.08447266 C174.22238892 403.92316895 174.23677002 404.76186523 174.25158691 405.62597656 C174.21414352 410.95343111 173.31334929 413.99829604 169.75390625 418.2109375 C166.86547852 420.09082031 166.86547852 420.09082031 163.5078125 421.6640625 C162.89523087 421.9543634 162.28264923 422.24466431 161.65150452 422.54376221 C155.15165559 425.58300991 148.52812614 428.34575277 141.88824463 431.0619812 C137.95994664 432.66945868 134.03925591 434.29536572 130.1171875 435.91796875 C129.28459412 436.26187149 128.45200073 436.60577423 127.59417725 436.96009827 C118.45335331 440.73941264 109.34216294 444.58834055 100.23239136 448.44177246 C97.38079042 449.64764073 94.52850461 450.85187502 91.67602539 452.05566406 C83.28177968 455.5991984 74.89028377 459.14871989 66.51101685 462.72755432 C63.03843117 464.20984622 59.56364677 465.68693865 56.08856201 467.1633606 C54.47420905 467.85091977 52.86092849 468.54100349 51.24884033 469.2338562 C37.78970149 475.01756161 25.26383103 479.32403268 10.44140625 479.5234375 C9.76529297 479.55244141 9.08917969 479.58144531 8.39257812 479.61132812 C-8.08253144 479.80238649 -23.28554771 473.13205853 -38.05859375 466.6484375 C-40.02296621 465.8005866 -41.9880716 464.95443206 -43.95385742 464.10986328 C-48.02675347 462.35850996 -52.09644595 460.6000041 -56.1640625 458.83642578 C-64.83566454 455.08393111 -73.54731055 451.42692611 -82.25741577 447.76495361 C-86.89815742 445.81166495 -91.53471844 443.84849928 -96.171875 441.88671875 C-102.74893976 439.10497644 -109.33090692 436.33539352 -115.91911316 433.58013916 C-119.64413364 432.02101157 -123.36651883 430.45565844 -127.08847046 428.88922119 C-128.84151272 428.15321923 -130.59574365 427.42004127 -132.35122681 426.68988037 C-134.7672381 425.68466771 -137.17890654 424.66965396 -139.58984375 423.65234375 C-140.29598312 423.36151413 -141.0021225 423.07068451 -141.72966003 422.77104187 C-146.30595837 420.82433082 -150.42118778 418.77072379 -153.36605835 414.63996887 C-154.71162833 410.92599136 -154.50629417 407.21120193 -154.47314453 403.31152344 C-154.47343658 402.41361084 -154.47372864 401.51569824 -154.47402954 400.59057617 C-154.47263723 397.62538967 -154.45708055 394.66045506 -154.44140625 391.6953125 C-154.43767577 389.6383681 -154.43482896 387.58142191 -154.43283081 385.5244751 C-154.4251971 380.11245817 -154.40555079 374.70054871 -154.38342285 369.28857422 C-154.36295883 363.76531427 -154.3538279 358.24203694 -154.34375 352.71875 C-154.32230471 341.8827653 -154.28817185 331.04686034 -154.24609375 320.2109375 C-154.84437862 320.01481369 -155.4426635 319.81868988 -156.05907822 319.61662292 C-163.96182643 317.0079116 -163.96182643 317.0079116 -167.67675781 315.44921875 C-168.79271332 314.98358521 -168.79271332 314.98358521 -169.93121338 314.50854492 C-171.08481354 314.02091675 -171.08481354 314.02091675 -172.26171875 313.5234375 C-173.08057556 313.17966064 -173.89943237 312.83588379 -174.74310303 312.48168945 C-176.45801509 311.760612 -178.17222179 311.03785485 -179.88574219 310.31347656 C-182.50104139 309.20884775 -185.11948512 308.11193359 -187.73828125 307.015625 C-189.41295438 306.31035622 -191.08744022 305.60464252 -192.76171875 304.8984375 C-193.53888245 304.57335205 -194.31604614 304.2482666 -195.11676025 303.91333008 C-202.95105247 300.58810875 -202.95105247 300.58810875 -206.24609375 298.2109375 C-206.87109375 295.3359375 -206.87109375 295.3359375 -206.24609375 292.2109375 C-204.64550052 290.48071876 -202.96743779 288.82107111 -201.24609375 287.2109375 C-200.41851562 286.43234375 -199.5909375 285.65375 -198.73828125 284.8515625 C-193.37936094 279.95654873 -187.91889924 275.25932629 -182.2734375 270.69921875 C-176.15266516 265.66833878 -170.21219604 260.42344519 -164.24609375 255.2109375 C-163.34375 254.42332031 -162.44140625 253.63570313 -161.51171875 252.82421875 C-159.75475809 251.28843576 -157.99915551 249.75116749 -156.24609375 248.2109375 C-162.44694562 242.46585424 -168.72767949 236.93118544 -175.3046875 231.6171875 C-179.22015117 228.41409903 -183.05120467 225.11786444 -186.88476562 221.81762695 C-191.64900618 217.71720216 -196.44095685 213.65076088 -201.24755859 209.60009766 C-205.14583858 206.31119267 -205.14583858 206.31119267 -206.24609375 205.2109375 C-206.28702312 202.87796317 -206.28851098 200.54388525 -206.24609375 198.2109375 C-197.47165775 193.62314277 -188.51672114 189.68583705 -179.38018799 185.88916016 C-176.09214159 184.52279552 -172.80790427 183.14738456 -169.52346802 181.77236938 C-167.79193696 181.04747532 -166.06022497 180.3230133 -164.32833862 179.59896851 C-154.15826275 175.34457201 -144.01464043 171.02810977 -133.87109375 166.7109375 C-132.09473878 165.95529354 -130.31837191 165.19967756 -128.54199219 164.4440918 C-124.44306359 162.7004013 -120.34446981 160.95592626 -116.24609375 159.2109375 C-116.24609375 156.27699379 -116.67470422 154.77952772 -117.68359375 152.0859375 C-121.45177578 140.94288493 -120.55877797 130.59401871 -115.55859375 119.8984375 C-112.89803098 114.92377345 -109.84089764 110.57414447 -105.24609375 107.2109375 C-104.58609375 107.2109375 -103.92609375 107.2109375 -103.24609375 107.2109375 C-103.74109375 106.0146875 -104.23609375 104.8184375 -104.74609375 103.5859375 C-107.68578148 94.65435037 -107.51096186 84.93714221 -103.50390625 76.390625 C-99.14483972 68.83671469 -93.24758743 64.2948932 -85.24609375 60.9609375 C-81.57656547 60.04355543 -78.00837244 59.60013874 -74.24609375 59.2109375 C-74.98859375 57.633125 -74.98859375 57.633125 -75.74609375 56.0234375 C-78.53110183 48.55696347 -78.60560432 39.29956028 -75.27734375 31.98046875 C-71.1162838 24.84046815 -65.21564964 20.07127247 -57.265625 17.59375 C-48.7070633 15.97143076 -40.49464854 17.37856764 -33.24609375 22.2109375 C-33.32859375 21.2621875 -33.41109375 20.3134375 -33.49609375 19.3359375 C-33.46042253 13.47396767 -31.43079643 7.78708812 -27.6328125 3.30859375 C-19.79816731 -3.79643925 -9.27578178 -5.28438477 0 0 Z " fill="#E4D2B2" transform="translate(246.24609375,17.7890625)"/>
<path d="M0 0 C3.69802924 2.55320504 6.27873363 5.49817857 8.75390625 9.2109375 C8.75390625 10.2009375 8.75390625 11.1909375 8.75390625 12.2109375 C9.41390625 12.2109375 10.07390625 12.2109375 10.75390625 12.2109375 C10.81578125 11.4890625 10.87765625 10.7671875 10.94140625 10.0234375 C12.60937803 4.24968902 17.83018527 1.20798505 22.75390625 -1.7890625 C28.71123785 -3.7748397 34.74380291 -3.51456066 40.56640625 -1.1640625 C46.77716205 1.96869969 50.04833755 6.72215854 52.26171875 13.17578125 C53.01115293 16.27463213 52.95233376 19.03609731 52.75390625 22.2109375 C53.285 21.93378906 53.81609375 21.65664063 54.36328125 21.37109375 C55.0696875 21.00886719 55.77609375 20.64664063 56.50390625 20.2734375 C57.2 19.91378906 57.89609375 19.55414063 58.61328125 19.18359375 C65.4556402 16.07456569 72.9562137 16.26581322 79.94140625 18.8359375 C87.92487521 22.42035214 92.53073221 27.08368683 95.75390625 35.2109375 C98.40919753 43.17681133 97.26753022 51.74448657 93.75390625 59.2109375 C94.45515625 59.30890625 95.15640625 59.406875 95.87890625 59.5078125 C105.49553041 61.02347609 114.0812649 63.95917636 120.1640625 72.09765625 C125.67336492 80.53026199 126.52063807 88.24342381 125.75390625 98.2109375 C125.00868741 101.4201169 124.01862051 104.15454471 122.75390625 107.2109375 C123.34300781 107.47132812 123.93210937 107.73171875 124.5390625 108 C132.42412781 112.31105864 136.1880803 121.01307037 138.75390625 129.2109375 C140.88408886 138.37211499 139.74998119 148.90885348 135.1640625 157.19140625 C127.85346048 167.66116038 127.85346048 167.66116038 122.75390625 170.2109375 C122.97046875 170.80519531 123.18703125 171.39945313 123.41015625 172.01171875 C126.82345297 182.17259742 126.97197336 190.491468 122.4296875 200.34375 C117.85856339 208.16474091 111.4335118 213.60128865 102.75390625 216.2109375 C99.43775686 217.01443028 96.12347945 217.67630793 92.75390625 218.2109375 C93.04265625 218.75621094 93.33140625 219.30148438 93.62890625 219.86328125 C97.52701937 227.78132353 97.84387152 233.5206953 95.06640625 241.8984375 C91.927357 249.74059191 87.33725788 254.42679981 79.75390625 258.2109375 C73.47583904 260.27730344 65.85651183 260.33844093 59.6796875 258.09375 C57.2974449 256.89073448 55.00913431 255.63636381 52.75390625 254.2109375 C52.64175781 255.479375 52.64175781 255.479375 52.52734375 256.7734375 C51.64252507 264.40716726 50.39186991 269.7957082 44.75390625 275.2109375 C38.76185263 279.63364374 32.01436918 280.09586927 24.75390625 279.2109375 C19.11656582 277.00914797 15.1371489 273.13201772 11.75390625 268.2109375 C10.94140625 265.3359375 10.94140625 265.3359375 10.75390625 263.2109375 C10.09390625 263.2109375 9.43390625 263.2109375 8.75390625 263.2109375 C8.65464844 263.95085937 8.55539063 264.69078125 8.453125 265.453125 C7.04510637 271.00653925 2.5211044 274.92570248 -1.99609375 278.2109375 C-7.88787752 280.02379404 -14.31794531 280.27203819 -20.12109375 277.9609375 C-25.24965628 275.08894249 -28.54605176 272.4712373 -31.24609375 267.2109375 C-31.9765625 263.87890625 -31.9765625 263.87890625 -32.43359375 260.3984375 C-32.59214844 259.23699219 -32.75070313 258.07554687 -32.9140625 256.87890625 C-33.07841797 255.55826172 -33.07841797 255.55826172 -33.24609375 254.2109375 C-34.31859375 254.8503125 -35.39109375 255.4896875 -36.49609375 256.1484375 C-42.96625178 260.00564709 -49.87254695 259.84674034 -57.24609375 259.2109375 C-60.28202739 258.30849519 -62.65158862 257.00621576 -65.24609375 255.2109375 C-66.27734375 254.5509375 -67.30859375 253.8909375 -68.37109375 253.2109375 C-73.40967645 248.69836069 -76.64990632 241.86561492 -77.7265625 235.265625 C-77.90100879 229.3012234 -76.74256431 224.6033139 -74.24609375 219.2109375 C-73.91609375 218.8809375 -73.58609375 218.5509375 -73.24609375 218.2109375 C-73.93574219 218.12457031 -74.62539062 218.03820312 -75.3359375 217.94921875 C-86.15128329 216.33210943 -94.52426272 212.03699389 -101.24609375 203.2109375 C-106.08946402 194.79381829 -107.80152088 186.79498984 -105.55859375 177.30078125 C-104.85772263 174.90501508 -104.10058889 172.55571286 -103.24609375 170.2109375 C-103.75398438 169.81003906 -104.261875 169.40914062 -104.78515625 168.99609375 C-111.98634823 163.04904195 -117.40641201 156.57658999 -119.24609375 147.2109375 C-119.37886719 146.54707031 -119.51164062 145.88320312 -119.6484375 145.19921875 C-121.4389326 133.99353594 -118.24633665 123.66710262 -112.24609375 114.2109375 C-110.12453177 111.60419503 -107.96541896 109.20137142 -105.24609375 107.2109375 C-104.58609375 107.2109375 -103.92609375 107.2109375 -103.24609375 107.2109375 C-103.74109375 106.0146875 -104.23609375 104.8184375 -104.74609375 103.5859375 C-107.68578148 94.65435037 -107.51096186 84.93714221 -103.50390625 76.390625 C-99.14483972 68.83671469 -93.24758743 64.2948932 -85.24609375 60.9609375 C-81.57656547 60.04355543 -78.00837244 59.60013874 -74.24609375 59.2109375 C-74.74109375 58.1590625 -75.23609375 57.1071875 -75.74609375 56.0234375 C-78.53110183 48.55696347 -78.60560432 39.29956028 -75.27734375 31.98046875 C-71.1162838 24.84046815 -65.21564964 20.07127247 -57.265625 17.59375 C-48.7070633 15.97143076 -40.49464854 17.37856764 -33.24609375 22.2109375 C-33.32859375 21.2621875 -33.41109375 20.3134375 -33.49609375 19.3359375 C-33.46042253 13.47396767 -31.43079643 7.78708812 -27.6328125 3.30859375 C-19.79816731 -3.79643925 -9.27578178 -5.28438477 0 0 Z " fill="#FE8C6A" transform="translate(246.24609375,17.7890625)"/>
<path d="M0 0 C1.81640625 1.77734375 1.81640625 1.77734375 3.5625 3.9375 C5.67531519 6.53028657 7.17546286 8.11697524 10 10 C9.7834375 10.59425781 9.566875 11.18851563 9.34375 11.80078125 C5.90667407 22.0324471 5.82282291 30.28720835 10.38671875 40.19921875 C14.6012455 47.51596373 20.35404075 51.7552862 28 55 C29.33554467 55.66222554 30.6691596 56.32837059 32 57 C15.88039314 64.2172914 -0.3537708 71.1197798 -16.67285156 77.87133789 C-17.4177887 78.17980148 -18.16272583 78.48826508 -18.93023682 78.80607605 C-20.37247352 79.40325124 -21.8149708 79.99979757 -23.25775146 80.59565735 C-26.99623118 82.1453377 -30.69706263 83.75148301 -34.375 85.44140625 C-38 87 -38 87 -41 87 C-41 87.66 -41 88.32 -41 89 C-40.3500708 89.09410156 -39.7001416 89.18820312 -39.03051758 89.28515625 C-34.98805176 90.23870011 -31.32784789 91.8166606 -27.51171875 93.4375 C-26.67382309 93.78908676 -25.83592743 94.14067352 -24.97264099 94.50291443 C-22.20897919 95.66403936 -19.44823261 96.83192951 -16.6875 98 C-14.7415144 98.81942601 -12.79538596 99.6385129 -10.84912109 100.45727539 C4.1962711 106.79245786 19.22028785 113.17834331 34.24053955 119.57286072 C63.10034683 131.85835228 91.98551511 144.08366124 121 156 C119.20872718 159.89768174 116.73220779 162.36859974 113.5625 165.1875 C112.7578833 165.9136853 112.7578833 165.9136853 111.93701172 166.65454102 C107.70389332 170.44491932 103.3391111 174.0568255 98.9140625 177.62109375 C95.56014749 180.35907531 92.27876936 183.17293864 89 186 C87.23133592 187.517617 85.46163913 189.03401803 83.69140625 190.54980469 C82.59339207 191.49123139 81.49694228 192.4344869 80.40234375 193.37988281 C78.94251921 194.63716136 77.47150791 195.88141587 76 197.125 C75.175 197.82882812 74.35 198.53265625 73.5 199.2578125 C68.75715992 202.56297918 64.56912864 203.55200577 58.79101562 202.71386719 C52.9731267 201.22580673 47.53934329 198.62736335 42.0774231 196.17132568 C38.01436716 194.34472192 33.93318124 192.55920449 29.85546875 190.765625 C28.55886574 190.19308487 28.55886574 190.19308487 27.23606873 189.60897827 C16.56489623 184.90537727 5.81259534 180.39448682 -4.9375 175.875 C-7.75820162 174.68789852 -10.57875119 173.50043743 -13.3991394 172.31259155 C-15.17533724 171.56473468 -16.95180097 170.81750896 -18.72854614 170.07095337 C-22.47110443 168.49667029 -26.20980812 166.91616003 -29.93017578 165.29003906 C-35.48360515 162.86664018 -41.02260225 160.59419153 -46.74609375 158.6015625 C-54.55878405 155.87110418 -62.13902118 152.65813933 -69.73510742 149.37890625 C-72.08845991 148.36380236 -74.44536892 147.35730685 -76.80273438 146.3515625 C-78.31792406 145.70102307 -79.83290594 145.04999935 -81.34765625 144.3984375 C-82.39144188 143.95303116 -82.39144188 143.95303116 -83.45631409 143.49862671 C-87.13575478 141.90396015 -90.72580691 140.33122858 -94 138 C-94.625 135.125 -94.625 135.125 -94 132 C-92.39940677 130.26978126 -90.72134404 128.61013361 -89 127 C-88.17242187 126.22140625 -87.34484375 125.4428125 -86.4921875 124.640625 C-81.13326719 119.74561123 -75.67280549 115.04838879 -70.02734375 110.48828125 C-63.90657141 105.45740128 -57.96610229 100.21250769 -52 95 C-51.09765625 94.21238281 -50.1953125 93.42476563 -49.265625 92.61328125 C-47.50866434 91.07749826 -45.75306176 89.54022999 -44 88 C-50.20085187 82.25491674 -56.48158574 76.72024794 -63.05859375 71.40625 C-66.97405742 68.20316153 -70.80511092 64.90692694 -74.63867188 61.60668945 C-79.40291243 57.50626466 -84.1948631 53.43982338 -89.00146484 49.38916016 C-92.89974483 46.10025517 -92.89974483 46.10025517 -94 45 C-94.04092937 42.66702567 -94.04241723 40.33294775 -94 38 C-84.46100849 33.01245038 -74.68304561 28.81218327 -64.75 24.6875 C-61.39241625 23.28840197 -58.03587294 21.88682365 -54.6796875 20.484375 C-53.38498032 19.94392799 -53.38498032 19.94392799 -52.06411743 19.39256287 C-45.60724933 16.69059967 -39.17892809 13.92633599 -32.7578125 11.140625 C-30.01914867 9.95744907 -27.28016906 8.77500671 -24.5411377 7.59268188 C-22.76850675 6.82463785 -20.99757387 6.05266238 -19.22839355 5.27670288 C-16.75811458 4.19377244 -14.28219875 3.12485145 -11.8046875 2.05859375 C-11.07097931 1.73236023 -10.33727112 1.40612671 -9.58132935 1.07000732 C-5.93739777 -0.48234675 -3.76137109 -1.36214124 0 0 Z " fill="#EBDDC5" transform="translate(134,178)"/>
<path d="M0 0 C4.98811622 0.6972703 9.33470287 2.6881049 13.92578125 4.65625 C14.81006302 5.03084854 15.69434479 5.40544708 16.60542297 5.79139709 C19.50974405 7.0230347 22.41114848 8.26138513 25.3125 9.5 C27.32258913 10.35447302 29.33284492 11.20855408 31.34326172 12.06225586 C35.49074173 13.82416782 39.63707691 15.58873893 43.78271484 17.35498047 C49.77342133 19.90585213 55.7708167 22.44068748 61.76953125 24.97265625 C64.51068938 26.13129333 67.25166373 27.2903636 69.99252319 28.44970703 C71.74299444 29.18966117 73.49382714 29.92876084 75.24502563 30.66699219 C77.6776279 31.69302376 80.10854235 32.7229541 82.5390625 33.75390625 C83.25572586 34.05514908 83.97238922 34.35639191 84.71076965 34.66676331 C87.68239775 35.93123405 90.30307051 37.20204701 93 39 C93.48828125 42.3203125 93.48828125 42.3203125 93 46 C90.98046875 48.5546875 90.98046875 48.5546875 88.1875 50.875 C87.68831055 51.29934326 87.18912109 51.72368652 86.67480469 52.16088867 C85.13320969 53.462427 83.57037032 54.73341115 82 56 C81.12472656 56.72058594 80.24945313 57.44117188 79.34765625 58.18359375 C77.57584324 59.6356811 75.79823075 61.08071376 74.015625 62.51953125 C70.45330134 65.44968089 66.97521604 68.4675451 63.5 71.5 C58.10630291 76.20570806 52.64868303 80.80173371 47.07421875 85.29296875 C44.95259606 86.98296875 44.95259606 86.98296875 43 89 C49.53170649 95.09853922 56.12791942 101.0153919 63.08984375 106.625 C67.02385565 109.83557615 70.86477337 113.14924846 74.70922852 116.46606445 C77.62530332 118.97769954 80.55349518 121.470132 83.5234375 123.91796875 C84.07781494 124.37502197 84.63219238 124.8320752 85.20336914 125.30297852 C86.7229149 126.55139913 88.2461114 127.79537232 89.76953125 129.0390625 C92 131 92 131 93 133 C93.039992 134.99960012 93.04346799 137.00047242 93 139 C82.13622759 144.61736078 71.14718892 149.60180725 59.8125 154.1875 C58.3572015 154.78266455 56.9021229 155.37836707 55.44726562 155.97460938 C49.19056837 158.53174736 42.92320709 161.04443744 36.6015625 163.4375 C29.01329781 166.33494409 21.55822349 169.53411725 14.09210205 172.72988892 C9.70805791 174.60615826 5.32057774 176.47436739 0.93359375 178.34375 C0.03419067 178.72723099 -0.8652124 179.11071198 -1.79187012 179.5058136 C-10.65435769 183.28298777 -19.52797593 187.03354907 -28.40652466 190.77279663 C-30.03403232 191.4582907 -31.66137589 192.14417449 -33.2885437 192.83047485 C-37.59180295 194.64536484 -41.89776896 196.45343529 -46.20864868 198.25015259 C-47.83173512 198.92956547 -49.45066824 199.61887947 -51.0690918 200.30932617 C-57.52994206 203.01192372 -62.96886369 204.37169508 -70 203 C-73.52422848 201.21058967 -76.1331152 198.69396159 -79 196 C-80.64093265 194.57890023 -82.29723078 193.17693054 -83.95385742 191.77416992 C-85.77333507 190.23019834 -87.58123521 188.67358462 -89.38671875 187.11328125 C-92.76138874 184.20072173 -96.15725159 181.31420498 -99.5625 178.4375 C-100.34971436 177.77077271 -100.34971436 177.77077271 -101.15283203 177.09057617 C-103.95743985 174.71701672 -106.77164418 172.35585695 -109.59765625 170.0078125 C-110.48312134 169.26833374 -110.48312134 169.26833374 -111.38647461 168.51391602 C-112.51317965 167.57328107 -113.64273441 166.6360449 -114.77563477 165.70288086 C-117.60367961 163.33611976 -119.85057179 160.98312911 -122 158 C-113.63724433 153.63656572 -105.12202408 149.85425819 -96.3994751 146.28152466 C-92.45070108 144.66321484 -88.50873973 143.02845453 -84.56640625 141.39453125 C-83.72313782 141.04529099 -82.87986938 140.69605072 -82.01104736 140.33622742 C-71.51881258 135.98293186 -61.07312835 131.52034258 -50.625 127.0625 C-36.03530165 120.84018362 -21.43582163 114.6429012 -6.8125 108.5 C8.48937299 102.07152664 23.75733639 95.56770018 39 89 C26.85646978 83.55932337 14.66032765 78.25859894 2.390625 73.109375 C1.37949142 72.68465408 0.36835785 72.25993317 -0.67341614 71.82234192 C-5.80832188 69.66658308 -10.94582329 67.51728428 -16.08666992 65.37573242 C-18.00446188 64.57226359 -19.92218933 63.76864079 -21.83984375 62.96484375 C-23.18202972 62.40920746 -23.18202972 62.40920746 -24.55133057 61.84234619 C-25.37220154 61.49726013 -26.19307251 61.15217407 -27.03881836 60.79663086 C-27.75839218 60.49671738 -28.477966 60.19680389 -29.21934509 59.88780212 C-31 59 -31 59 -33 57 C-32.2265625 56.731875 -31.453125 56.46375 -30.65625 56.1875 C-20.65803376 52.42579488 -14.56092863 47.99540224 -10 38.1875 C-6.42459883 28.58464888 -7.5532267 20.45811006 -11 11 C-10.18595703 10.31164062 -10.18595703 10.31164062 -9.35546875 9.609375 C-8.64003906 8.99578125 -7.92460937 8.3821875 -7.1875 7.75 C-6.47980469 7.14671875 -5.77210938 6.5434375 -5.04296875 5.921875 C-3.08110329 4.07629602 -1.54330375 2.20054668 0 0 Z " fill="#EBDDC5" transform="translate(379,177)"/>
<path d="M0 0 C2.1024931 0.91231491 4.20539683 1.82368379 6.30859375 2.734375 C6.90035904 2.99359741 7.49212433 3.25281982 8.1018219 3.51989746 C17.02081378 7.42630865 26.00811426 11.17345116 34.98187256 14.95178223 C38.03855898 16.23991093 41.09397841 17.53099506 44.14892578 18.82324219 C45.59736122 19.43579865 45.59736122 19.43579865 47.07505798 20.06072998 C48.90376772 20.83423356 50.73235706 21.6080219 52.56080627 22.38214111 C56.485133 24.04104851 60.40975348 25.6905022 64.375 27.25 C62.20995105 29.64616204 60.29114287 30.92334831 57.32299805 32.17260742 C56.50338089 32.5217923 55.68376373 32.87097717 54.83930969 33.23074341 C53.50152718 33.78748245 53.50152718 33.78748245 52.13671875 34.35546875 C51.2015593 34.75144257 50.26639984 35.14741638 49.30290222 35.5553894 C46.22565276 36.85638488 43.14414399 38.14695239 40.0625 39.4375 C37.91199882 40.34432282 35.76177356 41.25180023 33.61181641 42.15991211 C28.20237489 44.44289396 22.78952007 46.71765164 17.37554932 48.98986816 C13.0440039 50.8089745 8.71525256 52.63467952 4.38671875 54.4609375 C-1.71978364 57.036296 -7.8279618 59.60763331 -13.9375 62.17578125 C-23.90170306 66.36467621 -33.86216645 70.5624073 -43.82070923 74.76473999 C-46.71469365 75.98511157 -49.60959236 77.20329258 -52.50463867 78.42114258 C-60.85971466 81.93984693 -69.20120272 85.47988103 -77.48828125 89.15625 C-78.8011993 89.73485991 -80.11418481 90.31331677 -81.42724609 90.89160156 C-83.76806701 91.92728512 -86.10353897 92.97518805 -88.43212891 94.03808594 C-89.4432373 94.48442383 -90.4543457 94.93076172 -91.49609375 95.390625 C-92.35130615 95.77766602 -93.20651855 96.16470703 -94.08764648 96.56347656 C-100.37923851 98.26577203 -106.23017593 94.91878697 -111.91015625 92.4453125 C-112.8219313 92.05471146 -113.73370636 91.66411041 -114.67311096 91.26167297 C-116.64597052 90.41561928 -118.61754045 89.5665534 -120.58795166 88.71481323 C-123.73698848 87.35360807 -126.88922426 86.00008145 -130.04248047 84.64868164 C-133.3191453 83.24433722 -136.59561736 81.83956375 -139.87109375 80.43244934 C-150.64474039 75.80480233 -161.44461586 71.24043387 -172.25 66.6875 C-175.02385054 65.51786958 -177.79760541 64.34801251 -180.5713501 63.1781311 C-182.42592332 62.39594965 -184.28053752 61.61386534 -186.13519287 60.83187866 C-192.98416961 57.94368839 -199.83036288 55.04895622 -206.67578125 52.15234375 C-209.67474408 50.88394815 -212.67375703 49.61567113 -215.67279053 48.34744263 C-217.55224873 47.55236968 -219.43153084 46.75688028 -221.31060791 45.96090698 C-234.70688139 40.28668143 -248.14826715 34.73040218 -261.625 29.25 C-261.625 28.59 -261.625 27.93 -261.625 27.25 C-260.64668213 26.83862793 -259.66836426 26.42725586 -258.66040039 26.00341797 C-256.50223214 25.09589007 -254.34417271 24.18810569 -252.18632507 23.27981567 C-247.96372797 21.50244802 -243.74013137 19.72752826 -239.51464844 17.95703125 C-231.0159343 14.39163031 -222.53764811 10.79058122 -214.10546875 7.0703125 C-211.89796456 6.10447066 -209.6898223 5.14010496 -207.48141479 4.17633057 C-206.09025664 3.56454588 -204.70192456 2.94628927 -203.31668091 2.32122803 C-195.72383393 -1.10304016 -189.10783844 -3.82214342 -180.625 -2.75 C-181.08640381 -1.76858032 -181.08640381 -1.76858032 -181.55712891 -0.76733398 C-185.02025012 6.7883509 -186.20062256 13.33848904 -183.625 21.3671875 C-180.28671153 28.9731743 -175.93560208 33.36191731 -168.625 37.25 C-159.54193572 40.27768809 -150.69171881 38.26730989 -142.41015625 34.1484375 C-141.82105469 33.85195313 -141.23195313 33.55546875 -140.625 33.25 C-140.53863281 34.17941406 -140.45226562 35.10882813 -140.36328125 36.06640625 C-139.51419724 43.53678757 -138.89189397 48.73813422 -133.625 54.25 C-127.60795731 58.65271417 -120.89899785 59.14541606 -113.625 58.25 C-107.43089865 55.77441389 -103.08514419 51.53532444 -100.375 45.4375 C-100.1275 44.715625 -99.88 43.99375 -99.625 43.25 C-98.965 43.25 -98.305 43.25 -97.625 43.25 C-97.29628906 44.02923828 -97.29628906 44.02923828 -96.9609375 44.82421875 C-94.02330832 51.28461463 -90.34523518 55.47132352 -83.625 58.25 C-77.00187198 59.0309814 -71.40886559 58.60464204 -65.625 55.25 C-59.67890007 50.38500915 -57.70021324 45.20977362 -56.9375 37.8125 C-56.82197 36.29248765 -56.71379765 34.77180804 -56.625 33.25 C-55.66013672 33.79140625 -55.66013672 33.79140625 -54.67578125 34.34375 C-46.74732099 38.41542716 -39.29596169 39.85054209 -30.4921875 37.73828125 C-28.45806181 37.00101483 -28.45806181 37.00101483 -25.625 35.25 C-25.03203125 34.93289063 -24.4390625 34.61578125 -23.828125 34.2890625 C-17.80164528 30.65772216 -14.98862953 24.80990766 -13.01171875 18.19921875 C-11.46078235 10.38187264 -13.30271313 4.35435451 -16.625 -2.75 C-10.0317212 -4.42053425 -6.0715482 -2.74216282 0 0 Z " fill="#CEBCA0" transform="translate(354.625,237.75)"/>
<path d="M0 0 C1.423125 0.4021875 1.423125 0.4021875 2.875 0.8125 C4.58040667 4.22331335 4.01906023 8.12545456 4.01544189 11.87840271 C4.01989858 13.30499249 4.01989858 13.30499249 4.0244453 14.76040226 C4.03316022 17.96714868 4.03464289 21.17385789 4.03613281 24.38061523 C4.04075895 26.67158082 4.04578332 28.96254562 4.05117798 31.25350952 C4.06432217 37.49099661 4.07075066 43.72847293 4.07518864 49.96597171 C4.0781156 53.85859813 4.08221965 57.75122158 4.08669281 61.64384651 C4.09880368 72.41576651 4.10918551 83.18768264 4.1125679 93.95960903 C4.11278747 94.64923753 4.11300703 95.33886602 4.11323325 96.04939235 C4.11345153 96.74069265 4.11366981 97.43199295 4.1138947 98.14424175 C4.11433817 99.54513578 4.11478473 100.9460298 4.11523438 102.34692383 C4.11556652 103.38926679 4.11556652 103.38926679 4.11590537 104.45266718 C4.1198554 115.71846554 4.13731553 126.9841993 4.1605939 138.24997269 C4.18428591 149.80895271 4.19651055 161.36789107 4.19793582 172.92689663 C4.19898656 179.41989906 4.2049515 185.91281037 4.22275543 192.40579033 C4.23916739 198.50998473 4.24142521 204.61401886 4.23261642 210.71822739 C4.2318424 212.96326564 4.2362365 215.20831226 4.24607468 217.45332909 C4.2586838 220.50895136 4.25297779 223.5639964 4.24249268 226.61961365 C4.25054908 227.51610184 4.25860548 228.41259003 4.26690602 229.33624452 C4.26031618 230.15261544 4.25372633 230.96898636 4.2469368 231.81009579 C4.24753389 232.51567118 4.24813097 233.22124657 4.24874616 233.94820303 C3.75705333 236.40083414 2.84973343 237.31884528 0.875 238.8125 C-2.46692692 238.56796876 -3.73043557 238.20706443 -6.125 235.8125 C-6.32532348 232.76086502 -6.39853516 229.79963832 -6.38569641 226.74659729 C-6.38952196 225.79553744 -6.39334751 224.84447759 -6.39728898 223.86459774 C-6.40765933 220.65780486 -6.4036192 217.45118969 -6.3996582 214.24438477 C-6.40400244 211.95341831 -6.40918462 209.6624533 -6.41514587 207.37149048 C-6.42857804 201.13398682 -6.42910987 194.8965436 -6.42658257 188.65902829 C-6.42551572 183.45989901 -6.43038888 178.2607821 -6.435188 173.06165546 C-6.44693376 160.09853557 -6.44604977 147.13545439 -6.43963119 134.17233282 C-6.43446139 122.90652979 -6.44571738 111.64081322 -6.46472941 100.37502731 C-6.48408716 88.81604139 -6.49207567 77.25710665 -6.48860615 65.69810337 C-6.48678868 59.20510813 -6.48947553 52.71219207 -6.50332069 46.21920967 C-6.51584888 40.11500516 -6.51400258 34.0109743 -6.50090981 27.90677261 C-6.49853352 25.66173813 -6.50131605 23.41669162 -6.50953293 21.17167091 C-6.51991333 18.11603802 -6.51197005 15.06099722 -6.4992218 12.00538635 C-6.50659609 11.10889816 -6.51397037 10.21240997 -6.52156812 9.28875548 C-6.51436158 8.47238456 -6.50715503 7.65601364 -6.49973011 6.81490421 C-6.49978513 6.10932882 -6.49984014 5.40375343 -6.49989682 4.67679697 C-5.70644518 0.7310994 -3.84589708 -0.23075382 0 0 Z " fill="#E66741" transform="translate(257.125,37.1875)"/>
<path d="M0 0 C10.12412103 3.37470701 10.12412103 3.37470701 14.37573242 5.19799805 C15.81437149 5.81169502 15.81437149 5.81169502 17.28207397 6.43778992 C18.80340439 7.09313469 18.80340439 7.09313469 20.35546875 7.76171875 C21.43945953 8.22532303 22.52345032 8.68892731 23.64028931 9.1665802 C25.95804039 10.15812578 28.27516278 11.151142 30.59170532 12.14550781 C34.21667355 13.70001055 37.84456788 15.24748274 41.47338867 16.79296875 C51.64957959 21.12927007 61.82264157 25.47055298 71.95323181 29.91255188 C75.43394434 31.43672066 78.92082131 32.94641434 82.40884399 34.45376587 C83.99676246 35.14493569 85.58147522 35.84352306 87.16268921 36.54989624 C98.16032495 41.67068449 98.16032495 41.67068449 110 41 C116.06259411 38.41778399 120.33331674 34.09879665 125.12109375 29.63671875 C128.64209826 26.41191814 132.31956999 23.42561215 136.03515625 20.4296875 C140.08030808 17.11468824 144.03014428 13.69225533 147.96606445 10.24853516 C151.82064588 6.90703623 155.81115055 3.91305774 160 1 C158.31078858 5.08809153 155.44517134 8.1562818 152.5625 11.4375 C151.47359025 12.69238903 150.3850569 13.94760476 149.296875 15.203125 C148.74580078 15.83669922 148.19472656 16.47027344 147.62695312 17.12304688 C145.16776856 19.96011334 142.73705186 22.82082398 140.3125 25.6875 C139.63646729 26.48619507 139.63646729 26.48619507 138.94677734 27.30102539 C135.9938496 30.79898535 133.08134575 34.32786132 130.1875 37.875 C129.10082031 39.20144531 129.10082031 39.20144531 127.9921875 40.5546875 C126.7565911 42.07132151 125.53065967 43.59595307 124.3203125 45.1328125 C120.84597419 49.43523144 117.73932668 52.54877898 111.95654297 53.24658203 C104.33979681 53.48664228 98.01594636 51.41174605 90.875 48.9375 C88.13255794 48.01506654 85.38635555 47.10399689 82.640625 46.19140625 C81.89813507 45.94302002 81.15564514 45.69463379 80.39065552 45.4387207 C70.89720592 42.27394932 61.3362611 39.32392898 51.78009033 36.35528564 C46.60476689 34.74731416 41.43120689 33.13369666 36.2578125 31.51953125 C35.27593964 31.21323792 34.29406677 30.90694458 33.28244019 30.59136963 C22.16861432 27.12114068 11.08149599 23.57232437 0 20 C0 13.4 0 6.8 0 0 Z " fill="#CEBDA1" transform="translate(92,338)"/>
<path d="M0 0 C0 6.6 0 13.2 0 20 C-43.03151551 33.68127299 -43.03151551 33.68127299 -59.26367188 38.66552734 C-65.1304756 40.47076186 -70.98327825 42.31079281 -76.81811523 44.21655273 C-79.99390486 45.25286303 -83.17307159 46.27860742 -86.35235596 47.30413818 C-87.88676373 47.80245274 -89.41950829 48.30592361 -90.95037842 48.81500244 C-110.40692481 55.28183439 -110.40692481 55.28183439 -117.17358398 51.92016602 C-122.22696103 48.62244071 -125.8191321 43.81572202 -129.515625 39.125 C-132.26029061 35.67259043 -135.11450587 32.33449029 -138 29 C-142.40208375 23.89538955 -146.70432964 18.72174268 -150.953125 13.48828125 C-153.88802184 9.92047727 -156.92671669 6.44879703 -160 3 C-159.67 2.34 -159.34 1.68 -159 1 C-158.06800781 1.81082031 -157.13601563 2.62164062 -156.17578125 3.45703125 C-148.89233211 9.78603104 -141.58375167 16.08143112 -134.203125 22.296875 C-131.97591854 24.17256182 -129.75856256 26.05916585 -127.546875 27.953125 C-125.32872405 29.85246587 -123.09920526 31.73643042 -120.85546875 33.60546875 C-119.2263035 34.97164973 -117.61250357 36.35798768 -116.05078125 37.80078125 C-111.77502399 41.47606897 -107.92613995 41.55348939 -102.55297852 41.45776367 C-95.49628083 40.54858287 -89.19481411 37.42863353 -82.75 34.5625 C-81.18637924 33.88639197 -79.62182077 33.21244902 -78.05639648 32.54052734 C-74.74696578 31.11676138 -71.44285595 29.68152835 -68.14208984 28.23779297 C-62.93961775 25.96673171 -57.71678764 23.7455079 -52.48828125 21.53515625 C-51.62140686 21.16851868 -50.75453247 20.8018811 -49.86138916 20.4241333 C-48.12276894 19.68883938 -46.38412165 18.9536095 -44.64544678 18.21844482 C-35.04278405 14.15332744 -25.44957395 10.06569032 -15.87890625 5.92578125 C-14.88044678 5.49442871 -13.8819873 5.06307617 -12.85327148 4.61865234 C-11.10258085 3.86072471 -9.35326505 3.09960888 -7.60571289 2.33447266 C-2.21915092 0 -2.21915092 0 0 0 Z " fill="#CEBDA1" transform="translate(420,338)"/>
<path d="M0 0 C4.18619888 0.87212477 5.42414329 2.20660518 8 5.625 C8.74260091 9.15069438 8.68323229 12.61852733 8.64697266 16.2109375 C8.66011505 17.80932465 8.66011505 17.80932465 8.67352295 19.44000244 C8.6955196 22.9604165 8.680962 26.47957329 8.6640625 30 C8.66743052 32.44710532 8.67228302 34.894209 8.67855835 37.34130859 C8.6859301 42.46923758 8.67521366 47.59673102 8.65185547 52.72460938 C8.62336844 59.29900785 8.63977066 65.87238579 8.66971779 72.44674683 C8.68778204 77.49967138 8.68203653 82.55235382 8.66907883 87.60528564 C8.66574245 90.02939983 8.66983997 92.45353596 8.68147659 94.87762451 C8.69417002 98.26536313 8.6748266 101.65144719 8.64697266 105.0390625 C8.65709381 106.04181213 8.66721497 107.04456177 8.67764282 108.07769775 C8.60648056 112.74746683 8.5269206 114.92572872 5.64706421 118.74755859 C3 120.625 3 120.625 0 121.25 C-4.18619888 120.37787523 -5.42414329 119.04339482 -8 115.625 C-8.74260091 112.09930562 -8.68323229 108.63147267 -8.64697266 105.0390625 C-8.65573425 103.97347107 -8.66449585 102.90787964 -8.67352295 101.80999756 C-8.6955196 98.2895835 -8.680962 94.77042671 -8.6640625 91.25 C-8.66743052 88.80289468 -8.67228302 86.355791 -8.67855835 83.90869141 C-8.6859301 78.78076242 -8.67521366 73.65326898 -8.65185547 68.52539062 C-8.62336844 61.95099215 -8.63977066 55.37761421 -8.66971779 48.80325317 C-8.68778204 43.75032862 -8.68203653 38.69764618 -8.66907883 33.64471436 C-8.66574245 31.22060017 -8.66983997 28.79646404 -8.68147659 26.37237549 C-8.69417002 22.98463687 -8.6748266 19.59855281 -8.64697266 16.2109375 C-8.65709381 15.20818787 -8.66721497 14.20543823 -8.67764282 13.17230225 C-8.60648056 8.50253317 -8.5269206 6.32427128 -5.64706421 2.50244141 C-3 0.625 -3 0.625 0 0 Z " fill="#EBDDC4" transform="translate(256,362.375)"/>
<path d="M0 0 C1.28003906 -0.00773438 2.56007812 -0.01546875 3.87890625 -0.0234375 C7.59055975 0.39213732 9.52933016 1.06719098 12.4375 3.375 C12.875 5.9375 12.875 5.9375 12.4375 8.375 C10.4375 10.375 10.4375 10.375 7.171875 10.4296875 C4.52578005 10.31035381 1.87993243 10.18539686 -0.765625 10.0546875 C-6.23693634 10.51625903 -9.1288491 12.90260178 -12.875 16.75 C-14.78480503 19.72080782 -15.32874455 21.86866829 -15.5625 25.375 C-15.2325 26.035 -14.9025 26.695 -14.5625 27.375 C-14.38545408 30.01617689 -14.28508452 32.60696596 -14.25 35.25 C-14.22099609 35.97058594 -14.19199219 36.69117188 -14.16210938 37.43359375 C-14.11919498 41.0185959 -14.26969061 42.98458748 -16.44921875 45.890625 C-18.5625 47.375 -18.5625 47.375 -20.6875 47.25 C-22.5625 46.375 -22.5625 46.375 -24.5625 44.375 C-24.57699587 42.16582997 -24.50016111 39.9556693 -24.375 37.75 C-24.29955858 32.0918933 -24.63519178 28.39700805 -28.078125 23.8515625 C-30.34264835 21.5989577 -32.58981282 20.50462113 -35.5625 19.375 C-36.83574775 18.83903329 -38.10658729 18.29731101 -39.375 17.75 C-40.426875 17.29625 -41.47875 16.8425 -42.5625 16.375 C-43.5625 15.375 -43.5625 15.375 -43.75 12.9375 C-43.5625 10.375 -43.5625 10.375 -41.5625 8.375 C-34.31209116 7.11405933 -28.76033577 10.9555044 -22.5625 14.375 C-22.29953125 13.61445313 -22.0365625 12.85390625 -21.765625 12.0703125 C-20.54502355 9.33584821 -19.58872246 8.12634554 -17.3125 6.25 C-16.75046875 5.77304688 -16.1884375 5.29609375 -15.609375 4.8046875 C-10.38333636 1.15443914 -6.39313429 -0.03870717 0 0 Z " fill="#E56640" transform="translate(225.5625,151.625)"/>
<path d="M0 0 C6.8278166 2.0029449 12.22813471 5.91288406 16 12 C16 12.66 16 13.32 16 14 C16.79664063 13.566875 17.59328125 13.13375 18.4140625 12.6875 C20.00347656 11.8521875 20.00347656 11.8521875 21.625 11 C22.66914063 10.443125 23.71328125 9.88625 24.7890625 9.3125 C28.17302399 7.92927486 30.38520848 7.65252363 34 8 C35.9375 9.1875 35.9375 9.1875 37 11 C36.875 13.5625 36.875 13.5625 36 16 C33.28475773 17.81016151 31.62061343 18.47190558 28.5625 19.3125 C24.34730932 20.66738272 22.35806303 22.13277662 20 26 C19.63648438 26.5671875 19.27296875 27.134375 18.8984375 27.71875 C17.25631367 31.88831659 18.0328994 36.37446652 18.22265625 40.78515625 C18 44 18 44 16.65625 45.94140625 C15 47 15 47 12.4375 46.875 C10 46 10 46 8 43 C7.82979965 40.35468267 7.76700456 37.82862999 7.8125 35.1875 C7.81314453 34.48818359 7.81378906 33.78886719 7.81445312 33.06835938 C7.84150523 29.85517074 8.02837201 26.84657427 8.61328125 23.68359375 C9.29220936 20.81988085 9.29220936 20.81988085 7.375 17.875 C4.62489077 14.54592041 1.8779464 11.9389732 -2 10 C-5.2025115 9.97429177 -8.38935448 10.02824645 -11.58984375 10.12695312 C-13.39347804 10.1568379 -15.19810879 10.08472195 -17 10 C-19 8 -19 8 -19.375 5.5625 C-19 3 -19 3 -17.421875 1.37109375 C-12.25297472 -1.55517076 -5.73630225 -0.61272811 0 0 Z " fill="#E5653F" transform="translate(293,152)"/>
<path d="M0 0 C2.375 0.6875 2.375 0.6875 3.375 1.6875 C3.83666313 5.9001761 2.97001415 7.89739277 0.375 11.1875 C-3.14201965 15.44755197 -6.68656764 18.25641843 -11.625 20.6875 C-12.25148438 21.00589844 -12.87796875 21.32429688 -13.5234375 21.65234375 C-20.2043508 24.61103393 -27.81311849 24.88400616 -34.75 22.5625 C-39.61398664 20.46786393 -44.86209864 17.45040136 -48.625 13.6875 C-48.8125 11.25 -48.8125 11.25 -48.625 8.6875 C-47.965 8.0275 -47.305 7.3675 -46.625 6.6875 C-41.10901171 6.8996534 -38.05428713 8.53778471 -33.625 11.6875 C-27.71997524 13.59036661 -21.06462115 13.68532952 -15.375 11.125 C-11.80203647 9.11114783 -9.41923555 6.51489221 -6.94921875 3.2734375 C-4.78038171 0.67595125 -3.4125901 -0.40626073 0 0 Z " fill="#E56640" transform="translate(365.625,117.3125)"/>
<path d="M0 0 C3.51426484 0.09498013 4.8369458 0.84948843 7.4375 3.25 C8.283125 4.1575 9.12875 5.065 10 6 C16.35721885 11.81617895 21.59566538 13.56162763 30.1171875 13.46875 C34.34628099 12.78109252 37.27764196 10.79274026 40.7109375 8.3125 C43.40306659 6.76889014 44.94400862 6.59117172 48 7 C50 9 50 9 50.3671875 11.3984375 C49.88555354 14.81086536 48.8405901 15.56716529 46.125 17.625 C38.62001745 23.01590296 30.20465473 25.27603469 21 24 C11.13884849 21.34738022 3.14762662 15.84748325 -2 7 C-2.4375 4.1875 -2.4375 4.1875 -2 2 C-1.34 1.34 -0.68 0.68 0 0 Z " fill="#E56640" transform="translate(145,117)"/>
<path d="M0 0 C2.5625 0.1875 2.5625 0.1875 4.5625 2.1875 C5.01380967 6.70059671 5.06296772 9.16571173 3.0625 13.25 C-3.17475929 20.57877967 -9.00404442 25.50989344 -18.73828125 26.53515625 C-27.59501667 26.9061688 -33.46851685 25.46881137 -40.1875 19.6796875 C-41.4375 18.1875 -41.4375 18.1875 -41.25 15.625 C-40.4375 13.1875 -40.4375 13.1875 -38.4375 11.1875 C-34.97010555 11.38563683 -33.14882381 12.37069835 -30.1875 14.25 C-25.9710838 16.74692326 -22.23006563 16.99449559 -17.4375 16.1875 C-11.57769681 14.34466437 -8.35875591 11.69294383 -5.4375 6.1875 C-4.73927383 4.53380643 -4.06251395 2.87022986 -3.4375 1.1875 C-2.4375 0.1875 -2.4375 0.1875 0 0 Z " fill="#E56640" transform="translate(337.4375,62.8125)"/>
<path d="M0 0 C2.5 0.25 2.5 0.25 4.5 2.25 C4.978238 3.52714425 5.41161379 4.82150498 5.8125 6.125 C7.50180548 10.8345789 10.07035879 12.84926345 14.36328125 15.32421875 C18.30523357 17.03215787 22.30218318 16.90650067 26.5 16.25 C28.74554036 15.09804168 30.69591122 13.77087865 32.74609375 12.3046875 C34.5 11.25 34.5 11.25 37.375 11.3125 C39.5 12.25 39.5 12.25 41.5 14.25 C41.40928758 17.69707179 40.80223161 18.95640357 38.3125 21.375 C30.10074156 26.84950563 22.85768967 27.39425609 13.1640625 25.88671875 C6.48479349 23.88293805 -0.11088543 18.05352902 -3.7734375 12.22265625 C-5.03691104 8.79225766 -4.73476288 5.88882464 -4.5 2.25 C-2.5 0.25 -2.5 0.25 0 0 Z " fill="#E56640" transform="translate(174.5,62.75)"/>
<path d="M0 0 C2.5625 0.375 2.5625 0.375 4.1875 2 C5.5625 4.375 5.5625 4.375 6.875 7.3125 C9.38071533 11.8599093 12.54572397 14.70274132 17.5625 16.375 C21.14528662 16.5740437 23.83939015 16.66768732 27.1875 15.3125 C30.08347407 14.16935234 31.62442599 14.47725516 34.5625 15.375 C35.5625 16.375 35.5625 16.375 35.875 19.25 C35.5625 22.375 35.5625 22.375 33.8125 24.1875 C27.29567891 27.62693335 18.63041854 27.61257958 11.69921875 25.50390625 C3.97411122 21.92855299 -1.37468824 16.37234182 -4.4375 8.375 C-4.75 5.125 -4.75 5.125 -4.4375 2.375 C-2.4375 0.375 -2.4375 0.375 0 0 Z " fill="#E56640" transform="translate(294.4375,250.625)"/>
<path d="M0 0 C2.5625 0.1875 2.5625 0.1875 4.5625 2.1875 C5.05334143 7.11636601 3.86468865 11.33517804 1.0625 15.375 C-3.11036885 20.41469668 -8.84185124 25.08418376 -15.4375 26.1875 C-28.82257209 27.08675549 -28.82257209 27.08675549 -34.4375 23.1875 C-35.4375 22.1875 -35.4375 22.1875 -35.6875 19.25 C-35.605 18.239375 -35.5225 17.22875 -35.4375 16.1875 C-32.4375 14.1875 -32.4375 14.1875 -29.875 14.5 C-27.4375 15.1875 -27.4375 15.1875 -25.4375 16.1875 C-19.83280309 16.56114646 -16.25041497 16.39610998 -11.4375 13.1875 C-7.90192172 9.48747622 -5.58779625 5.81063693 -3.4375 1.1875 C-2.4375 0.1875 -2.4375 0.1875 0 0 Z " fill="#E56640" transform="translate(217.4375,250.8125)"/>
<path d="M0 0 C3.52606915 0.54849965 5.33544403 2.03231144 8.06640625 4.24609375 C12.56960913 7.31874896 18.58496157 7.04370551 23.8125 6.4375 C25.99809788 5.55633466 27.94579387 4.50486695 29.984375 3.328125 C32.61776741 2.04519024 34.94428542 2.15067854 37.8125 2.4375 C38.625 5.6875 38.625 5.6875 38.8125 9.4375 C34.67874435 14.0879751 28.6427974 16.49434128 22.5078125 16.90625 C20.98470708 16.93971941 19.46092546 16.94954987 17.9375 16.9375 C17.1439209 16.93468018 16.3503418 16.93186035 15.53271484 16.92895508 C9.25081425 16.75535417 4.77213476 15.42091705 -0.1875 11.4375 C-0.91453125 10.95023438 -1.6415625 10.46296875 -2.390625 9.9609375 C-4.1875 8.4375 -4.1875 8.4375 -4.5625 5.375 C-4.11557273 1.87406975 -3.5355219 0.70710438 0 0 Z " fill="#E56640" transform="translate(322.1875,217.5625)"/>
<path d="M0 0 C5.56818182 0.56818182 5.56818182 0.56818182 7 2 C7.625 4.6875 7.625 4.6875 7 8 C-1.14299341 15.52341783 -10.26532464 16.63063081 -20.8359375 16.39453125 C-27.12324889 16.00633847 -31.61035952 13.38964048 -36 9 C-36.1875 5.9375 -36.1875 5.9375 -36 3 C-35 2 -35 2 -32.4375 1.6875 C-29.11669126 1.9893917 -28.05951202 2.40040247 -25.3125 4 C-20.3057186 6.68049482 -15.562475 6.82347235 -10 6 C-6.05809788 4.63279246 -2.95208067 2.95208067 0 0 Z " fill="#E56640" transform="translate(187,218)"/>
<path d="M0 0 C2.8125 0.5625 2.8125 0.5625 4.8125 2.5625 C5.29711008 5.76092655 5.02682186 7.20983281 3.3359375 9.9921875 C-3.63127765 17.92214511 -12.25469794 23.82600794 -22.875 25.6875 C-26.1875 25.5625 -26.1875 25.5625 -28.25 24.4375 C-29.1875 22.5625 -29.1875 22.5625 -29 20 C-28.1875 17.5625 -28.1875 17.5625 -26.1875 15.5625 C-24.47301091 15.07061507 -22.74021503 14.64124834 -21 14.25 C-13.99350482 12.40907774 -9.55490243 9.88659843 -5.625 3.75 C-3.57752386 0.63132774 -3.57752386 0.63132774 0 0 Z " fill="#E66641" transform="translate(375.1875,169.4375)"/>
<path d="M0 0 C3.1875 0.5625 3.1875 0.5625 4.4453125 1.953125 C5.25565009 3.18741404 6.05320046 4.43016408 6.83984375 5.6796875 C10.90750729 11.36262613 17.36633913 13.79743942 23.875 15.5625 C27.1875 16.5625 27.1875 16.5625 29.1875 18.5625 C28.8125 21.6875 28.8125 21.6875 28.1875 24.5625 C22.30534803 26.2652282 17.6558875 24.90609464 12.1875 22.5625 C5.72123472 18.91016834 -0.96720411 14.0562116 -4.8125 7.5625 C-5.1171875 4.9453125 -5.1171875 4.9453125 -4.8125 2.5625 C-2.8125 0.5625 -2.8125 0.5625 0 0 Z " fill="#E66641" transform="translate(136.8125,169.4375)"/>
</svg>
